<?xml version="1.0" encoding="utf-8" standalone="no"?>
<!DOCTYPE svg PUBLIC "-//W3C//DTD SVG 1.1//EN"
  "http://www.w3.org/Graphics/SVG/1.1/DTD/svg11.dtd">
<svg xmlns:xlink="http://www.w3.org/1999/xlink" width="581.867887pt" height="582.650102pt" viewBox="0 0 581.867887 582.650102" xmlns="http://www.w3.org/2000/svg" version="1.1">
 <metadata>
  <rdf:RDF xmlns:dc="http://purl.org/dc/elements/1.1/" xmlns:cc="http://creativecommons.org/ns#" xmlns:rdf="http://www.w3.org/1999/02/22-rdf-syntax-ns#">
   <cc:Work>
    <dc:type rdf:resource="http://purl.org/dc/dcmitype/StillImage"/>
    <dc:date>2026-10-07T15:15:30.428312</dc:date>
    <dc:format>image/svg+xml</dc:format>
    <dc:creator>
     <cc:Agent>
      <dc:title>Matplotlib v3.11.1, https://matplotlib.org/</dc:title>
     </cc:Agent>
    </dc:creator>
   </cc:Work>
  </rdf:RDF>
 </metadata>
 <defs>
  <style type="text/css">*{stroke-linejoin: round; stroke-linecap: butt}</style>
 </defs>
 <g id="figure_1">
  <g id="patch_1">
   <path d="M 0 582.650102 
L 581.867887 582.650102 
L 581.867887 0 
L 0 0 
z
" style="fill: #ffffff"/>
  </g>
  <g id="axes_1">
   <g id="patch_2">
    <path d="M 42.443887 257.429647 
L 268.922185 257.429647 
L 268.922185 46.512 
L 42.443887 46.512 
z
" style="fill: #ffffff"/>
   </g>
   <g id="FillBetweenPolyCollection_1">
    <defs>
     <path id="mc3d477d5db" d="M 52.738355 -399.977563 
L 52.738355 -366.655485 
L 53.816305 -377.528967 
L 54.894246 -385.463984 
L 55.972189 -345.304321 
L 57.05013 -396.537536 
L 58.128054 -370.571732 
L 59.206002 -366.442169 
L 60.283948 -377.023519 
L 61.361884 -366.47937 
L 62.439825 -408.489076 
L 63.517777 -361.897795 
L 64.595716 -374.994213 
L 65.673657 -360.58425 
L 66.751597 -385.614144 
L 67.829538 -373.651359 
L 68.90749 -371.088414 
L 69.985429 -365.7387 
L 71.063372 -345.490411 
L 72.141304 -387.52351 
L 73.219252 -384.914243 
L 74.297193 -381.946179 
L 75.375136 -385.398905 
L 76.453079 -358.730337 
L 77.531022 -381.962224 
L 78.608967 -367.410857 
L 79.686899 -386.195141 
L 80.764852 -394.630039 
L 81.842799 -383.329761 
L 82.920733 -375.450098 
L 83.998683 -364.516432 
L 85.076631 -371.508126 
L 86.154574 -396.189647 
L 87.232508 -344.925859 
L 88.310455 -363.837492 
L 89.388406 -354.232883 
L 90.466353 -370.277925 
L 91.544299 -381.295302 
L 92.62224 -383.601097 
L 93.700187 -391.262413 
L 94.778126 -402.014665 
L 95.856069 -366.917085 
L 96.934021 -400.952139 
L 98.011969 -385.940172 
L 99.089922 -335.938082 
L 100.167856 -373.597529 
L 101.245808 -383.716163 
L 102.323744 -354.200504 
L 103.401701 -386.225467 
L 104.479649 -365.152128 
L 105.557606 -385.377706 
L 106.635542 -373.874097 
L 107.713493 -382.815487 
L 108.791449 -375.969387 
L 109.869388 -364.465802 
L 110.947326 -383.310384 
L 112.025279 -383.061015 
L 113.103231 -387.783217 
L 114.181179 -376.380922 
L 115.259127 -407.752329 
L 116.337079 -427.83919 
L 117.415027 -412.329236 
L 118.492972 -456.960158 
L 119.570918 -391.963251 
L 120.64887 -411.142921 
L 121.72682 -403.22873 
L 122.804767 -411.740486 
L 123.882718 -398.638257 
L 124.960672 -387.184361 
L 126.038618 -418.318815 
L 127.116581 -406.831323 
L 128.194523 -407.960103 
L 129.27247 -415.456182 
L 130.350427 -417.882021 
L 131.428377 -399.75496 
L 132.506323 -401.77187 
L 133.584284 -433.287351 
L 134.66223 -420.349101 
L 135.740179 -408.533938 
L 136.818134 -442.885605 
L 137.896091 -440.386154 
L 138.974044 -437.022061 
L 140.051991 -435.748684 
L 141.129941 -436.709117 
L 142.2079 -395.072756 
L 143.285853 -437.416764 
L 144.363805 -425.779059 
L 145.441765 -422.524737 
L 146.519708 -428.956549 
L 147.597667 -406.51546 
L 148.675615 -415.367552 
L 149.753567 -396.753869 
L 150.831522 -420.747562 
L 151.909486 -419.761701 
L 152.987433 -436.13986 
L 154.065383 -414.4556 
L 155.143336 -419.608744 
L 156.221295 -427.064934 
L 157.299257 -423.163092 
L 158.377212 -424.959203 
L 159.455168 -431.598648 
L 160.533116 -427.482941 
L 161.611073 -446.449969 
L 162.689035 -415.532887 
L 163.766989 -403.219354 
L 164.844942 -430.287208 
L 165.922894 -419.134839 
L 167.000848 -403.156121 
L 168.078813 -425.841778 
L 169.156764 -399.547066 
L 170.234729 -429.783355 
L 171.312695 -399.362537 
L 172.390643 -410.631543 
L 173.468594 -436.447785 
L 174.546564 -442.924644 
L 175.624516 -412.948792 
L 176.702476 -441.369429 
L 177.780434 -419.299526 
L 178.85838 -442.495209 
L 179.936346 -389.776917 
L 181.014312 -424.566066 
L 182.092271 -414.200069 
L 183.170235 -429.568173 
L 184.24818 -402.239801 
L 185.32614 -404.773066 
L 186.404104 -406.063915 
L 187.482067 -406.403852 
L 188.560029 -410.925546 
L 189.637989 -426.236659 
L 190.715943 -450.268842 
L 191.793898 -415.096091 
L 192.871859 -410.554469 
L 193.949817 -420.694147 
L 195.02778 -414.875136 
L 196.105744 -454.673347 
L 197.183702 -417.321068 
L 198.261666 -405.494875 
L 199.339636 -409.507084 
L 200.417598 -409.920531 
L 201.495561 -380.54655 
L 202.57351 -410.988851 
L 203.651479 -410.789315 
L 204.729442 -420.837742 
L 205.807403 -412.181479 
L 206.885366 -384.360505 
L 207.963328 -425.773366 
L 209.041291 -463.061259 
L 210.119249 -439.272264 
L 211.197204 -441.977533 
L 212.275168 -442.994346 
L 213.353137 -450.643538 
L 214.431102 -434.48878 
L 215.509065 -431.733305 
L 216.587026 -485.248144 
L 217.664986 -432.445665 
L 218.742958 -430.552556 
L 219.820922 -408.25683 
L 220.898884 -413.129136 
L 221.976853 -421.218593 
L 223.05481 -414.115453 
L 224.132771 -405.606056 
L 225.210739 -417.545479 
L 226.288706 -355.371892 
L 227.366673 -390.659868 
L 228.444641 -384.49346 
L 229.522605 -389.259183 
L 230.600574 -423.060058 
L 231.678531 -392.120215 
L 232.756498 -411.626909 
L 233.834468 -397.676184 
L 234.912428 -410.684355 
L 235.990399 -373.05503 
L 237.06837 -366.608422 
L 238.146341 -401.693929 
L 239.224294 -374.940395 
L 240.302266 -373.438226 
L 241.380233 -383.312998 
L 242.458197 -396.14087 
L 243.536159 -386.129871 
L 244.614126 -428.424086 
L 245.6921 -384.53811 
L 246.770069 -383.785118 
L 247.848034 -382.977971 
L 248.926007 -416.520618 
L 250.003972 -385.662818 
L 251.081929 -408.92836 
L 252.159903 -408.664997 
L 253.237871 -369.231477 
L 254.315833 -394.28912 
L 255.39381 -361.483513 
L 256.471773 -391.729562 
L 257.549744 -383.709025 
L 258.627717 -413.282792 
L 258.627717 -447.24087 
L 258.627717 -447.24087 
L 257.549744 -418.071923 
L 256.471773 -425.204735 
L 255.39381 -404.421944 
L 254.315833 -431.457055 
L 253.237871 -403.324606 
L 252.159903 -454.879864 
L 251.081929 -441.669164 
L 250.003972 -419.906046 
L 248.926007 -455.279429 
L 247.848034 -419.753692 
L 246.770069 -422.343173 
L 245.6921 -423.350194 
L 244.614126 -477.583968 
L 243.536159 -420.09152 
L 242.458197 -430.299443 
L 241.380233 -415.94693 
L 240.302266 -413.284048 
L 239.224294 -410.753926 
L 238.146341 -438.294863 
L 237.06837 -405.584584 
L 235.990399 -409.567757 
L 234.912428 -446.112594 
L 233.834468 -431.761463 
L 232.756498 -450.687108 
L 231.678531 -426.706297 
L 230.600574 -463.48672 
L 229.522605 -424.749044 
L 228.444641 -417.52627 
L 227.366673 -428.881184 
L 226.288706 -399.516768 
L 225.210739 -461.063852 
L 224.132771 -446.539055 
L 223.05481 -459.402333 
L 221.976853 -466.872944 
L 220.898884 -454.225316 
L 219.820922 -453.636033 
L 218.742958 -473.564819 
L 217.664986 -478.529331 
L 216.587026 -526.550936 
L 215.509065 -478.188338 
L 214.431102 -471.557703 
L 213.353137 -491.561629 
L 212.275168 -489.438956 
L 211.197204 -488.004986 
L 210.119249 -483.10573 
L 209.041291 -503.359303 
L 207.963328 -467.277975 
L 206.885366 -421.455988 
L 205.807403 -450.269034 
L 204.729442 -455.939126 
L 203.651479 -454.760345 
L 202.57351 -446.304876 
L 201.495561 -420.492748 
L 200.417598 -449.485668 
L 199.339636 -448.070579 
L 198.261666 -443.616669 
L 197.183702 -461.335752 
L 196.105744 -493.271316 
L 195.02778 -461.992519 
L 193.949817 -463.887749 
L 192.871859 -458.469687 
L 191.793898 -453.582757 
L 190.715943 -493.919937 
L 189.637989 -465.960795 
L 188.560029 -455.931288 
L 187.482067 -443.901038 
L 186.404104 -455.873733 
L 185.32614 -447.324175 
L 184.24818 -438.197696 
L 183.170235 -467.429546 
L 182.092271 -450.415218 
L 181.014312 -462.463809 
L 179.936346 -430.029267 
L 178.85838 -484.517807 
L 177.780434 -456.748924 
L 176.702476 -479.798328 
L 175.624516 -452.92905 
L 174.546564 -485.437292 
L 173.468594 -483.952242 
L 172.390643 -449.925861 
L 171.312695 -436.595864 
L 170.234729 -471.863558 
L 169.156764 -450.246282 
L 168.078813 -466.308234 
L 167.000848 -438.172498 
L 165.922894 -459.482089 
L 164.844942 -471.144418 
L 163.766989 -440.584211 
L 162.689035 -458.523359 
L 161.611073 -485.167726 
L 160.533116 -462.861567 
L 159.455168 -468.387526 
L 158.377212 -464.769569 
L 157.299257 -460.47422 
L 156.221295 -467.549405 
L 155.143336 -458.433956 
L 154.065383 -453.303777 
L 152.987433 -478.003442 
L 151.909486 -464.372039 
L 150.831522 -461.103636 
L 149.753567 -432.007156 
L 148.675615 -460.485409 
L 147.597667 -440.474173 
L 146.519708 -474.19181 
L 145.441765 -464.505776 
L 144.363805 -464.00298 
L 143.285853 -477.906283 
L 142.2079 -429.72797 
L 141.129941 -477.615332 
L 140.051991 -480.156974 
L 138.974044 -472.489508 
L 137.896091 -475.792513 
L 136.818134 -489.394103 
L 135.740179 -443.319125 
L 134.66223 -455.675461 
L 133.584284 -481.330039 
L 132.506323 -444.275775 
L 131.428377 -440.132051 
L 130.350427 -459.376595 
L 129.27247 -457.436551 
L 128.194523 -446.060846 
L 127.116581 -449.19512 
L 126.038618 -455.692787 
L 124.960672 -429.827754 
L 123.882718 -439.325874 
L 122.804767 -455.487631 
L 121.72682 -444.995623 
L 120.64887 -452.330408 
L 119.570918 -435.986087 
L 118.492972 -497.002602 
L 117.415027 -459.986739 
L 116.337079 -477.665145 
L 115.259127 -445.100213 
L 114.181179 -424.94228 
L 113.103231 -432.434144 
L 112.025279 -428.254498 
L 110.947326 -428.991623 
L 109.869388 -405.056019 
L 108.791449 -415.92623 
L 107.713493 -428.50489 
L 106.635542 -424.41306 
L 105.557606 -428.689984 
L 104.479649 -413.328537 
L 103.401701 -428.976835 
L 102.323744 -395.173749 
L 101.245808 -420.985411 
L 100.167856 -417.938155 
L 99.089922 -373.821285 
L 98.011969 -432.796707 
L 96.934021 -443.056435 
L 95.856069 -408.815222 
L 94.778126 -449.444109 
L 93.700187 -432.427188 
L 92.62224 -423.67969 
L 91.544299 -421.509235 
L 90.466353 -410.747757 
L 89.388406 -395.09093 
L 88.310455 -409.141407 
L 87.232508 -376.973429 
L 86.154574 -424.880497 
L 85.076631 -400.70385 
L 83.998683 -398.165064 
L 82.920733 -411.24477 
L 81.842799 -411.398208 
L 80.764852 -424.412327 
L 79.686899 -417.841894 
L 78.608967 -397.079528 
L 77.531022 -413.171487 
L 76.453079 -395.248995 
L 75.375136 -421.58111 
L 74.297193 -418.852015 
L 73.219252 -415.67162 
L 72.141304 -420.094597 
L 71.063372 -383.433977 
L 69.985429 -395.354321 
L 68.90749 -404.042433 
L 67.829538 -402.167626 
L 66.751597 -412.349133 
L 65.673657 -395.194315 
L 64.595716 -400.929536 
L 63.517777 -391.731561 
L 62.439825 -437.555748 
L 61.361884 -398.534136 
L 60.283948 -409.412676 
L 59.206002 -396.894957 
L 58.128054 -402.950622 
L 57.05013 -425.860267 
L 55.972189 -378.061279 
L 54.894246 -415.636079 
L 53.816305 -411.3098 
L 52.738355 -399.977563 
z
" style="stroke: #4a5358; stroke-opacity: 0.12"/>
    </defs>
    <g clip-path="url(#p38169d8f92)">
     <use xlink:href="#mc3d477d5db" x="0" y="582.650102" style="fill: #4a5358; fill-opacity: 0.12; stroke: #4a5358; stroke-opacity: 0.12"/>
    </g>
   </g>
   <g id="FillBetweenPolyCollection_2">
    <defs>
     <path id="md8acd3f5f6" d="M 52.738355 -408.33283 
L 52.738355 -374.021852 
L 53.816305 -378.115834 
L 54.894246 -389.92792 
L 55.972189 -358.818872 
L 57.05013 -400.309411 
L 58.128054 -373.580545 
L 59.206002 -371.981092 
L 60.283948 -377.34443 
L 61.361884 -363.477298 
L 62.439825 -405.242236 
L 63.517777 -354.295223 
L 64.595716 -375.003457 
L 65.673657 -363.117823 
L 66.751597 -382.648731 
L 67.829538 -366.393204 
L 68.90749 -371.199496 
L 69.985429 -369.246237 
L 71.063372 -351.1438 
L 72.141304 -391.359314 
L 73.219252 -384.879085 
L 74.297193 -373.585432 
L 75.375136 -386.701598 
L 76.453079 -352.529869 
L 77.531022 -378.41301 
L 78.608967 -364.390386 
L 79.686899 -380.085577 
L 80.764852 -391.141544 
L 81.842799 -382.451469 
L 82.920733 -369.921633 
L 83.998683 -365.263398 
L 85.076631 -369.177304 
L 86.154574 -397.124239 
L 87.232508 -350.942134 
L 88.310455 -364.445501 
L 89.388406 -353.653796 
L 90.466353 -368.880642 
L 91.544299 -379.169099 
L 92.62224 -379.545118 
L 93.700187 -386.606336 
L 94.778126 -404.291857 
L 95.856069 -369.793377 
L 96.934021 -402.227042 
L 98.011969 -387.151509 
L 99.089922 -338.749221 
L 100.167856 -389.771494 
L 101.245808 -394.789845 
L 102.323744 -359.54656 
L 103.401701 -394.200694 
L 104.479649 -373.215602 
L 105.557606 -391.807525 
L 106.635542 -372.697379 
L 107.713493 -389.890221 
L 108.791449 -375.360282 
L 109.869388 -353.427407 
L 110.947326 -384.29043 
L 112.025279 -376.047144 
L 113.103231 -382.719668 
L 114.181179 -367.420467 
L 115.259127 -400.365887 
L 116.337079 -419.889078 
L 117.415027 -398.611724 
L 118.492972 -437.239482 
L 119.570918 -373.792067 
L 120.64887 -394.418028 
L 121.72682 -387.948692 
L 122.804767 -396.211816 
L 123.882718 -381.826408 
L 124.960672 -364.803193 
L 126.038618 -392.465467 
L 127.116581 -377.769573 
L 128.194523 -380.57708 
L 129.27247 -395.923437 
L 130.350427 -397.829981 
L 131.428377 -383.948658 
L 132.506323 -375.956149 
L 133.584284 -411.959232 
L 134.66223 -389.489096 
L 135.740179 -381.701535 
L 136.818134 -409.845756 
L 137.896091 -414.749411 
L 138.974044 -412.529984 
L 140.051991 -409.277351 
L 141.129941 -405.628835 
L 142.2079 -363.761913 
L 143.285853 -400.741997 
L 144.363805 -389.320949 
L 145.441765 -396.138851 
L 146.519708 -400.730568 
L 147.597667 -377.526946 
L 148.675615 -392.037148 
L 149.753567 -364.716313 
L 150.831522 -389.859439 
L 151.909486 -388.54386 
L 152.987433 -410.617803 
L 154.065383 -380.720508 
L 155.143336 -383.85739 
L 156.221295 -392.076041 
L 157.299257 -391.137063 
L 158.377212 -388.839327 
L 159.455168 -397.88184 
L 160.533116 -390.860149 
L 161.611073 -414.132028 
L 162.689035 -378.304368 
L 163.766989 -376.514038 
L 164.844942 -399.419039 
L 165.922894 -387.1129 
L 167.000848 -373.532658 
L 168.078813 -401.803465 
L 169.156764 -373.313036 
L 170.234729 -394.341218 
L 171.312695 -375.933219 
L 172.390643 -378.639703 
L 173.468594 -407.258558 
L 174.546564 -409.654496 
L 175.624516 -390.782091 
L 176.702476 -416.267731 
L 177.780434 -397.454255 
L 178.85838 -417.322379 
L 179.936346 -364.24897 
L 181.014312 -407.609881 
L 182.092271 -397.510198 
L 183.170235 -410.240868 
L 184.24818 -374.9775 
L 185.32614 -384.505113 
L 186.404104 -386.776868 
L 187.482067 -382.262012 
L 188.560029 -387.03706 
L 189.637989 -406.802538 
L 190.715943 -431.282447 
L 191.793898 -391.832507 
L 192.871859 -387.904201 
L 193.949817 -398.772732 
L 195.02778 -389.510833 
L 196.105744 -430.011087 
L 197.183702 -389.085767 
L 198.261666 -384.407425 
L 199.339636 -390.424174 
L 200.417598 -391.660777 
L 201.495561 -357.170924 
L 202.57351 -384.665327 
L 203.651479 -382.607085 
L 204.729442 -393.414051 
L 205.807403 -396.120367 
L 206.885366 -354.31902 
L 207.963328 -399.850135 
L 209.041291 -424.706453 
L 210.119249 -408.623128 
L 211.197204 -406.074228 
L 212.275168 -399.959662 
L 213.353137 -408.843911 
L 214.431102 -387.294539 
L 215.509065 -388.385791 
L 216.587026 -445.191117 
L 217.664986 -394.471893 
L 218.742958 -392.130388 
L 219.820922 -373.360971 
L 220.898884 -382.364956 
L 221.976853 -383.354163 
L 223.05481 -382.297056 
L 224.132771 -375.434767 
L 225.210739 -383.96671 
L 226.288706 -335.801848 
L 227.366673 -377.544075 
L 228.444641 -373.218539 
L 229.522605 -376.763396 
L 230.600574 -397.520079 
L 231.678531 -369.111547 
L 232.756498 -388.881336 
L 233.834468 -380.63315 
L 234.912428 -397.474966 
L 235.990399 -355.972549 
L 237.06837 -345.482766 
L 238.146341 -391.980482 
L 239.224294 -361.306104 
L 240.302266 -360.713837 
L 241.380233 -372.324749 
L 242.458197 -381.675979 
L 243.536159 -372.046452 
L 244.614126 -410.390931 
L 245.6921 -365.680012 
L 246.770069 -370.933339 
L 247.848034 -373.354558 
L 248.926007 -414.03327 
L 250.003972 -375.021047 
L 251.081929 -405.896539 
L 252.159903 -401.166392 
L 253.237871 -367.835216 
L 254.315833 -384.320034 
L 255.39381 -356.877724 
L 256.471773 -389.371979 
L 257.549744 -387.189602 
L 258.627717 -408.564435 
L 258.627717 -441.512114 
L 258.627717 -441.512114 
L 257.549744 -421.145029 
L 256.471773 -421.390835 
L 255.39381 -399.115626 
L 254.315833 -419.841572 
L 253.237871 -401.906893 
L 252.159903 -444.686539 
L 251.081929 -438.138862 
L 250.003972 -407.879199 
L 248.926007 -449.242125 
L 247.848034 -407.508724 
L 246.770069 -409.579543 
L 245.6921 -401.462559 
L 244.614126 -457.072914 
L 243.536159 -405.19487 
L 242.458197 -417.638203 
L 241.380233 -401.604355 
L 240.302266 -398.247164 
L 239.224294 -394.559929 
L 238.146341 -429.312623 
L 237.06837 -382.047354 
L 235.990399 -393.517491 
L 234.912428 -432.931043 
L 233.834468 -413.123426 
L 232.756498 -429.574362 
L 231.678531 -402.391749 
L 230.600574 -436.781336 
L 229.522605 -409.976747 
L 228.444641 -406.600986 
L 227.366673 -413.641723 
L 226.288706 -372.92161 
L 225.210739 -421.732824 
L 224.132771 -408.591239 
L 223.05481 -421.61506 
L 221.976853 -424.660524 
L 220.898884 -420.038795 
L 219.820922 -411.854294 
L 218.742958 -426.293451 
L 217.664986 -433.199101 
L 216.587026 -481.249456 
L 215.509065 -428.143924 
L 214.431102 -420.234917 
L 213.353137 -443.768357 
L 212.275168 -441.113856 
L 211.197204 -447.418411 
L 210.119249 -450.194725 
L 209.041291 -459.151154 
L 207.963328 -435.249211 
L 206.885366 -388.269193 
L 205.807403 -429.048949 
L 204.729442 -425.9884 
L 203.651479 -423.34427 
L 202.57351 -421.598748 
L 201.495561 -393.683626 
L 200.417598 -425.870405 
L 199.339636 -425.070253 
L 198.261666 -415.082121 
L 197.183702 -430.166107 
L 196.105744 -465.155876 
L 195.02778 -432.249049 
L 193.949817 -437.80009 
L 192.871859 -432.711458 
L 191.793898 -421.550044 
L 190.715943 -467.389697 
L 189.637989 -443.000457 
L 188.560029 -422.972874 
L 187.482067 -414.077633 
L 186.404104 -430.096817 
L 185.32614 -421.700268 
L 184.24818 -406.700681 
L 183.170235 -442.146724 
L 182.092271 -428.697433 
L 181.014312 -443.414147 
L 179.936346 -400.477595 
L 178.85838 -452.136589 
L 177.780434 -430.572262 
L 176.702476 -448.879722 
L 175.624516 -424.338052 
L 174.546564 -444.163231 
L 173.468594 -448.352983 
L 172.390643 -411.718476 
L 171.312695 -405.49114 
L 170.234729 -429.902359 
L 169.156764 -416.937834 
L 168.078813 -435.429322 
L 167.000848 -405.076866 
L 165.922894 -422.928383 
L 164.844942 -434.438081 
L 163.766989 -404.884107 
L 162.689035 -414.498363 
L 161.611073 -446.164792 
L 160.533116 -422.714305 
L 159.455168 -431.413361 
L 158.377212 -423.260741 
L 157.299257 -422.714205 
L 156.221295 -426.554839 
L 155.143336 -417.334781 
L 154.065383 -416.520395 
L 152.987433 -443.129908 
L 151.909486 -427.769481 
L 150.831522 -424.72935 
L 149.753567 -396.355767 
L 148.675615 -430.673119 
L 147.597667 -407.970864 
L 146.519708 -437.426696 
L 145.441765 -434.670075 
L 144.363805 -428.28792 
L 143.285853 -436.612384 
L 142.2079 -397.891471 
L 141.129941 -444.348053 
L 140.051991 -446.766624 
L 138.974044 -442.262164 
L 137.896091 -447.61764 
L 136.818134 -452.194156 
L 135.740179 -416.027205 
L 134.66223 -420.057228 
L 133.584284 -454.481378 
L 132.506323 -415.028048 
L 131.428377 -420.328888 
L 130.350427 -434.042772 
L 129.27247 -432.128376 
L 128.194523 -417.249152 
L 127.116581 -416.386434 
L 126.038618 -427.288748 
L 124.960672 -403.505475 
L 123.882718 -417.859907 
L 122.804767 -432.428625 
L 121.72682 -425.182409 
L 120.64887 -428.806353 
L 119.570918 -410.029576 
L 118.492972 -473.61038 
L 117.415027 -437.28748 
L 116.337079 -461.309208 
L 115.259127 -432.014165 
L 114.181179 -408.911523 
L 113.103231 -420.854735 
L 112.025279 -416.937302 
L 110.947326 -421.421075 
L 109.869388 -388.450846 
L 108.791449 -407.558536 
L 107.713493 -428.300388 
L 106.635542 -413.415842 
L 105.557606 -425.123155 
L 104.479649 -417.750551 
L 103.401701 -428.391688 
L 102.323744 -394.135952 
L 101.245808 -430.033727 
L 100.167856 -426.736916 
L 99.089922 -373.29676 
L 98.011969 -425.876245 
L 96.934021 -439.772829 
L 95.856069 -409.312107 
L 94.778126 -445.032298 
L 93.700187 -422.4303 
L 92.62224 -412.935995 
L 91.544299 -416.79463 
L 90.466353 -407.343051 
L 89.388406 -392.653288 
L 88.310455 -409.40614 
L 87.232508 -380.118157 
L 86.154574 -425.152257 
L 85.076631 -398.33852 
L 83.998683 -398.812085 
L 82.920733 -406.717902 
L 81.842799 -409.998006 
L 80.764852 -418.807539 
L 79.686899 -411.162528 
L 78.608967 -392.505323 
L 77.531022 -410.221685 
L 76.453079 -390.337291 
L 75.375136 -422.013907 
L 74.297193 -411.328929 
L 73.219252 -416.52243 
L 72.141304 -423.436968 
L 71.063372 -388.174065 
L 69.985429 -399.433981 
L 68.90749 -407.283044 
L 67.829538 -397.00089 
L 66.751597 -410.754341 
L 65.673657 -396.677692 
L 64.595716 -402.518357 
L 63.517777 -386.482575 
L 62.439825 -435.507675 
L 61.361884 -395.005332 
L 60.283948 -408.869667 
L 59.206002 -404.061442 
L 58.128054 -405.951321 
L 57.05013 -430.254102 
L 55.972189 -392.146819 
L 54.894246 -421.151698 
L 53.816305 -413.150416 
L 52.738355 -408.33283 
z
" style="stroke: #b2232e; stroke-opacity: 0.12"/>
    </defs>
    <g clip-path="url(#p38169d8f92)">
     <use xlink:href="#md8acd3f5f6" x="0" y="582.650102" style="fill: #b2232e; fill-opacity: 0.12; stroke: #b2232e; stroke-opacity: 0.12"/>
    </g>
   </g>
   <g id="FillBetweenPolyCollection_3">
    <defs>
     <path id="m0daec35703" d="M 52.738355 -403.302661 
L 52.738355 -369.277003 
L 53.816305 -377.086765 
L 54.894246 -392.528274 
L 55.972189 -352.237769 
L 57.05013 -397.212992 
L 58.128054 -374.741774 
L 59.206002 -367.727359 
L 60.283948 -376.7371 
L 61.361884 -367.984186 
L 62.439825 -408.186979 
L 63.517777 -356.910025 
L 64.595716 -373.625187 
L 65.673657 -363.011467 
L 66.751597 -381.129555 
L 67.829538 -370.550574 
L 68.90749 -374.224153 
L 69.985429 -367.132307 
L 71.063372 -351.311872 
L 72.141304 -390.703585 
L 73.219252 -381.580237 
L 74.297193 -372.799748 
L 75.375136 -386.375134 
L 76.453079 -352.348537 
L 77.531022 -380.941027 
L 78.608967 -365.25981 
L 79.686899 -384.018708 
L 80.764852 -390.998772 
L 81.842799 -383.75746 
L 82.920733 -370.179537 
L 83.998683 -365.94294 
L 85.076631 -371.041613 
L 86.154574 -396.600681 
L 87.232508 -348.411011 
L 88.310455 -363.229425 
L 89.388406 -355.851019 
L 90.466353 -368.541996 
L 91.544299 -375.751934 
L 92.62224 -381.751663 
L 93.700187 -390.254417 
L 94.778126 -402.205202 
L 95.856069 -369.418364 
L 96.934021 -403.481216 
L 98.011969 -383.195855 
L 99.089922 -334.80762 
L 100.167856 -386.587752 
L 101.245808 -388.65385 
L 102.323744 -355.935878 
L 103.401701 -391.100845 
L 104.479649 -374.280053 
L 105.557606 -387.753519 
L 106.635542 -374.023022 
L 107.713493 -387.002482 
L 108.791449 -376.572733 
L 109.869388 -354.784678 
L 110.947326 -386.751996 
L 112.025279 -378.445301 
L 113.103231 -383.916917 
L 114.181179 -370.890142 
L 115.259127 -405.764043 
L 116.337079 -423.97358 
L 117.415027 -402.740872 
L 118.492972 -443.901361 
L 119.570918 -380.054881 
L 120.64887 -398.962374 
L 121.72682 -396.111213 
L 122.804767 -400.872894 
L 123.882718 -387.51797 
L 124.960672 -371.72 
L 126.038618 -398.524151 
L 127.116581 -385.494103 
L 128.194523 -387.813139 
L 129.27247 -404.213818 
L 130.350427 -400.918802 
L 131.428377 -392.438899 
L 132.506323 -386.650636 
L 133.584284 -415.936371 
L 134.66223 -401.280176 
L 135.740179 -390.216708 
L 136.818134 -424.594051 
L 137.896091 -421.906741 
L 138.974044 -417.995898 
L 140.051991 -419.669533 
L 141.129941 -413.261914 
L 142.2079 -372.618859 
L 143.285853 -410.887463 
L 144.363805 -402.469035 
L 145.441765 -401.665784 
L 146.519708 -413.186777 
L 147.597667 -388.238705 
L 148.675615 -401.316755 
L 149.753567 -374.705089 
L 150.831522 -402.221447 
L 151.909486 -399.650999 
L 152.987433 -420.42272 
L 154.065383 -392.553868 
L 155.143336 -396.078364 
L 156.221295 -401.251991 
L 157.299257 -399.761309 
L 158.377212 -401.094634 
L 159.455168 -409.126306 
L 160.533116 -397.793581 
L 161.611073 -426.292176 
L 162.689035 -390.866753 
L 163.766989 -388.475107 
L 164.844942 -413.815694 
L 165.922894 -395.82453 
L 167.000848 -380.548188 
L 168.078813 -408.941326 
L 169.156764 -382.02869 
L 170.234729 -402.434055 
L 171.312695 -383.7961 
L 172.390643 -391.319881 
L 173.468594 -418.752278 
L 174.546564 -420.086522 
L 175.624516 -397.18482 
L 176.702476 -422.747595 
L 177.780434 -405.246184 
L 178.85838 -425.825117 
L 179.936346 -372.644668 
L 181.014312 -415.888964 
L 182.092271 -407.47486 
L 183.170235 -418.510534 
L 184.24818 -382.831175 
L 185.32614 -392.147201 
L 186.404104 -392.618298 
L 187.482067 -392.695775 
L 188.560029 -391.903741 
L 189.637989 -413.412244 
L 190.715943 -439.304272 
L 191.793898 -399.931375 
L 192.871859 -394.496688 
L 193.949817 -407.065872 
L 195.02778 -397.031564 
L 196.105744 -437.32716 
L 197.183702 -394.820742 
L 198.261666 -389.076598 
L 199.339636 -395.54995 
L 200.417598 -398.754463 
L 201.495561 -361.756907 
L 202.57351 -394.164513 
L 203.651479 -389.099672 
L 204.729442 -403.164909 
L 205.807403 -399.829859 
L 206.885366 -367.339342 
L 207.963328 -408.500721 
L 209.041291 -436.750993 
L 210.119249 -418.437382 
L 211.197204 -415.590459 
L 212.275168 -415.063348 
L 213.353137 -425.24293 
L 214.431102 -404.865742 
L 215.509065 -399.150179 
L 216.587026 -459.522181 
L 217.664986 -403.664628 
L 218.742958 -401.69919 
L 219.820922 -382.699783 
L 220.898884 -393.507796 
L 221.976853 -391.131641 
L 223.05481 -395.90286 
L 224.132771 -384.617247 
L 225.210739 -396.149375 
L 226.288706 -343.052398 
L 227.366673 -380.455176 
L 228.444641 -379.983368 
L 229.522605 -382.282745 
L 230.600574 -408.866918 
L 231.678531 -373.698359 
L 232.756498 -398.18007 
L 233.834468 -388.943995 
L 234.912428 -405.240153 
L 235.990399 -359.494945 
L 237.06837 -350.1676 
L 238.146341 -393.299882 
L 239.224294 -368.898645 
L 240.302266 -365.664896 
L 241.380233 -374.964531 
L 242.458197 -385.417546 
L 243.536159 -377.005233 
L 244.614126 -415.688925 
L 245.6921 -373.343332 
L 246.770069 -375.197932 
L 247.848034 -376.261144 
L 248.926007 -417.516909 
L 250.003972 -377.13204 
L 251.081929 -408.179302 
L 252.159903 -403.726874 
L 253.237871 -370.137804 
L 254.315833 -386.591053 
L 255.39381 -356.829962 
L 256.471773 -391.332089 
L 257.549744 -387.01912 
L 258.627717 -410.184356 
L 258.627717 -443.287155 
L 258.627717 -443.287155 
L 257.549744 -420.934441 
L 256.471773 -422.522311 
L 255.39381 -399.93035 
L 254.315833 -423.046635 
L 253.237871 -404.266675 
L 252.159903 -448.191186 
L 251.081929 -441.581464 
L 250.003972 -411.071901 
L 248.926007 -453.220647 
L 247.848034 -410.838387 
L 246.770069 -415.01285 
L 245.6921 -409.918272 
L 244.614126 -463.434765 
L 243.536159 -411.085472 
L 242.458197 -420.9495 
L 241.380233 -405.01029 
L 240.302266 -404.154898 
L 239.224294 -402.811542 
L 238.146341 -430.548163 
L 237.06837 -387.320838 
L 235.990399 -396.823561 
L 234.912428 -441.085487 
L 233.834468 -421.285762 
L 232.756498 -437.497997 
L 231.678531 -407.823909 
L 230.600574 -448.291487 
L 229.522605 -416.508373 
L 228.444641 -413.688035 
L 227.366673 -417.003966 
L 226.288706 -382.272291 
L 225.210739 -434.856173 
L 224.132771 -419.202322 
L 223.05481 -436.400153 
L 221.976853 -433.874504 
L 220.898884 -431.419385 
L 219.820922 -423.574471 
L 218.742958 -438.797055 
L 217.664986 -444.701621 
L 216.587026 -496.632868 
L 215.509065 -440.541386 
L 214.431102 -437.479408 
L 213.353137 -459.948129 
L 212.275168 -457.312952 
L 211.197204 -458.055101 
L 210.119249 -459.283757 
L 209.041291 -472.344876 
L 207.963328 -445.143663 
L 206.885366 -401.283387 
L 205.807403 -434.313607 
L 204.729442 -435.591975 
L 203.651479 -429.664787 
L 202.57351 -429.52411 
L 201.495561 -398.787602 
L 200.417598 -434.341736 
L 199.339636 -430.047525 
L 198.261666 -421.796541 
L 197.183702 -436.282522 
L 196.105744 -473.776997 
L 195.02778 -440.707334 
L 193.949817 -446.748158 
L 192.871859 -439.648131 
L 191.793898 -433.015283 
L 190.715943 -477.191222 
L 189.637989 -451.365894 
L 188.560029 -430.206784 
L 187.482067 -425.175945 
L 186.404104 -437.695441 
L 185.32614 -430.553886 
L 184.24818 -415.095294 
L 183.170235 -452.040808 
L 182.092271 -439.071292 
L 181.014312 -450.88393 
L 179.936346 -409.394051 
L 178.85838 -461.603228 
L 177.780434 -439.07262 
L 176.702476 -457.161513 
L 175.624516 -432.814442 
L 174.546564 -456.47173 
L 173.468594 -461.267919 
L 172.390643 -425.788578 
L 171.312695 -414.783782 
L 170.234729 -439.792016 
L 169.156764 -428.094071 
L 168.078813 -444.277846 
L 167.000848 -412.317015 
L 165.922894 -433.596162 
L 164.844942 -450.083838 
L 163.766989 -419.618793 
L 162.689035 -428.276347 
L 161.611073 -459.750675 
L 160.533116 -431.103777 
L 159.455168 -443.256143 
L 158.377212 -437.600997 
L 157.299257 -432.433373 
L 156.221295 -437.086511 
L 155.143336 -430.429185 
L 154.065383 -428.991337 
L 152.987433 -455.546526 
L 151.909486 -440.829151 
L 150.831522 -439.071605 
L 149.753567 -406.560681 
L 148.675615 -440.658546 
L 147.597667 -419.588285 
L 146.519708 -453.338031 
L 145.441765 -441.202199 
L 144.363805 -441.061907 
L 143.285853 -447.847716 
L 142.2079 -406.730053 
L 141.129941 -452.528387 
L 140.051991 -459.103506 
L 138.974044 -449.083891 
L 137.896091 -454.468066 
L 136.818134 -466.416576 
L 135.740179 -424.462311 
L 134.66223 -431.854937 
L 133.584284 -459.713209 
L 132.506323 -425.820191 
L 131.428377 -429.438361 
L 130.350427 -439.245844 
L 129.27247 -441.637607 
L 128.194523 -426.079772 
L 127.116581 -424.955931 
L 126.038618 -433.405346 
L 124.960672 -410.304027 
L 123.882718 -425.428631 
L 122.804767 -440.532391 
L 121.72682 -433.725495 
L 120.64887 -434.542994 
L 119.570918 -418.89135 
L 118.492972 -480.181539 
L 117.415027 -444.628304 
L 116.337079 -467.064327 
L 115.259127 -438.690014 
L 114.181179 -413.789677 
L 113.103231 -422.648975 
L 112.025279 -421.137379 
L 110.947326 -426.423677 
L 109.869388 -391.098971 
L 108.791449 -411.033892 
L 107.713493 -428.006993 
L 106.635542 -417.468661 
L 105.557606 -423.068264 
L 104.479649 -420.137692 
L 103.401701 -428.036316 
L 102.323744 -391.524648 
L 101.245808 -424.748296 
L 100.167856 -426.383137 
L 99.089922 -370.784979 
L 98.011969 -424.545774 
L 96.934021 -441.442603 
L 95.856069 -410.643178 
L 94.778126 -444.630723 
L 93.700187 -427.780097 
L 92.62224 -416.318803 
L 91.544299 -414.042281 
L 90.466353 -407.527748 
L 89.388406 -394.841158 
L 88.310455 -408.569779 
L 87.232508 -378.295418 
L 86.154574 -424.970716 
L 85.076631 -400.427978 
L 83.998683 -399.353305 
L 82.920733 -407.067574 
L 81.842799 -412.419424 
L 80.764852 -419.70931 
L 79.686899 -415.673455 
L 78.608967 -393.945412 
L 77.531022 -412.86785 
L 76.453079 -389.491017 
L 75.375136 -420.986415 
L 74.297193 -410.509766 
L 73.219252 -413.005236 
L 72.141304 -422.435224 
L 71.063372 -388.744773 
L 69.985429 -396.63379 
L 68.90749 -408.831824 
L 67.829538 -401.503556 
L 66.751597 -409.106737 
L 65.673657 -398.214617 
L 64.595716 -400.041374 
L 63.517777 -388.204798 
L 62.439825 -437.852424 
L 61.361884 -400.039313 
L 60.283948 -408.555099 
L 59.206002 -399.669066 
L 58.128054 -406.855715 
L 57.05013 -426.18351 
L 55.972189 -385.653717 
L 54.894246 -422.348732 
L 53.816305 -412.235418 
L 52.738355 -403.302661 
z
" style="stroke: #79c7d3; stroke-opacity: 0.12"/>
    </defs>
    <g clip-path="url(#p38169d8f92)">
     <use xlink:href="#m0daec35703" x="0" y="582.650102" style="fill: #79c7d3; fill-opacity: 0.12; stroke: #79c7d3; stroke-opacity: 0.12"/>
    </g>
   </g>
   <g id="patch_3">
    <path d="M 121.417269 257.429647 
L 224.897604 257.429647 
L 224.897604 46.512 
L 121.417269 46.512 
z
" clip-path="url(#p38169d8f92)" style="fill: #a8adb2; opacity: 0.08; stroke: #a8adb2; stroke-linejoin: miter"/>
   </g>
   <g id="matplotlib.axis_1">
    <g id="xtick_1">
     <g id="line2d_1">
      <defs>
       <path id="mf40e2ff516" d="M 0 0 
L 0 3.5 
" style="stroke: #000000; stroke-width: 0.8"/>
      </defs>
      <g>
       <use xlink:href="#mf40e2ff516" x="52.430379" y="257.429647" style="stroke: #000000; stroke-width: 0.8"/>
      </g>
     </g>
     <g id="text_1">
      <text style="font-size: 8px; font-family: 'Arial'; text-anchor: middle" x="52.430379" y="270.253866" transform="rotate(-0 52.430379 270.253866)">0</text>
     </g>
    </g>
    <g id="xtick_2">
     <g id="line2d_2">
      <g>
       <use xlink:href="#mf40e2ff516" x="86.923824" y="257.429647" style="stroke: #000000; stroke-width: 0.8"/>
      </g>
     </g>
     <g id="text_2">
      <text style="font-size: 8px; font-family: 'Arial'; text-anchor: middle" x="86.923824" y="270.253866" transform="rotate(-0 86.923824 270.253866)">5</text>
     </g>
    </g>
    <g id="xtick_3">
     <g id="line2d_3">
      <g>
       <use xlink:href="#mf40e2ff516" x="121.417269" y="257.429647" style="stroke: #000000; stroke-width: 0.8"/>
      </g>
     </g>
     <g id="text_3">
      <text style="font-size: 8px; font-family: 'Arial'; text-anchor: middle" x="121.417269" y="270.253866" transform="rotate(-0 121.417269 270.253866)">10</text>
     </g>
    </g>
    <g id="xtick_4">
     <g id="line2d_4">
      <g>
       <use xlink:href="#mf40e2ff516" x="155.910714" y="257.429647" style="stroke: #000000; stroke-width: 0.8"/>
      </g>
     </g>
     <g id="text_4">
      <text style="font-size: 8px; font-family: 'Arial'; text-anchor: middle" x="155.910714" y="270.253866" transform="rotate(-0 155.910714 270.253866)">15</text>
     </g>
    </g>
    <g id="xtick_5">
     <g id="line2d_5">
      <g>
       <use xlink:href="#mf40e2ff516" x="190.404159" y="257.429647" style="stroke: #000000; stroke-width: 0.8"/>
      </g>
     </g>
     <g id="text_5">
      <text style="font-size: 8px; font-family: 'Arial'; text-anchor: middle" x="190.404159" y="270.253866" transform="rotate(-0 190.404159 270.253866)">20</text>
     </g>
    </g>
    <g id="xtick_6">
     <g id="line2d_6">
      <g>
       <use xlink:href="#mf40e2ff516" x="224.897604" y="257.429647" style="stroke: #000000; stroke-width: 0.8"/>
      </g>
     </g>
     <g id="text_6">
      <text style="font-size: 8px; font-family: 'Arial'; text-anchor: middle" x="224.897604" y="270.253866" transform="rotate(-0 224.897604 270.253866)">25</text>
     </g>
    </g>
    <g id="xtick_7">
     <g id="line2d_7">
      <g>
       <use xlink:href="#mf40e2ff516" x="259.391049" y="257.429647" style="stroke: #000000; stroke-width: 0.8"/>
      </g>
     </g>
     <g id="text_7">
      <text style="font-size: 8px; font-family: 'Arial'; text-anchor: middle" x="259.391049" y="270.253866" transform="rotate(-0 259.391049 270.253866)">30</text>
     </g>
    </g>
    <g id="text_8">
     <text style="font-size: 9px; font-family: 'Arial'; text-anchor: middle" x="155.683036" y="282.489706" transform="rotate(-0 155.683036 282.489706)">Trial time (s)</text>
    </g>
   </g>
   <g id="matplotlib.axis_2">
    <g id="ytick_1">
     <g id="line2d_8">
      <defs>
       <path id="ma4aac08399" d="M 0 0 
L -3.5 0 
" style="stroke: #000000; stroke-width: 0.8"/>
      </defs>
      <g>
       <use xlink:href="#ma4aac08399" x="42.443887" y="254.711847" style="stroke: #000000; stroke-width: 0.8"/>
      </g>
     </g>
     <g id="text_9">
      <text style="font-size: 8px; font-family: 'Arial'; text-anchor: end" x="35.443887" y="257.623956" transform="rotate(-0 35.443887 257.623956)">−1.0</text>
     </g>
    </g>
    <g id="ytick_2">
     <g id="line2d_9">
      <g>
       <use xlink:href="#ma4aac08399" x="42.443887" y="222.970014" style="stroke: #000000; stroke-width: 0.8"/>
      </g>
     </g>
     <g id="text_10">
      <text style="font-size: 8px; font-family: 'Arial'; text-anchor: end" x="35.443887" y="225.882123" transform="rotate(-0 35.443887 225.882123)">−0.5</text>
     </g>
    </g>
    <g id="ytick_3">
     <g id="line2d_10">
      <g>
       <use xlink:href="#ma4aac08399" x="42.443887" y="191.228181" style="stroke: #000000; stroke-width: 0.8"/>
      </g>
     </g>
     <g id="text_11">
      <text style="font-size: 8px; font-family: 'Arial'; text-anchor: end" x="35.443887" y="194.14029" transform="rotate(-0 35.443887 194.14029)">0.0</text>
     </g>
    </g>
    <g id="ytick_4">
     <g id="line2d_11">
      <g>
       <use xlink:href="#ma4aac08399" x="42.443887" y="159.486348" style="stroke: #000000; stroke-width: 0.8"/>
      </g>
     </g>
     <g id="text_12">
      <text style="font-size: 8px; font-family: 'Arial'; text-anchor: end" x="35.443887" y="162.398457" transform="rotate(-0 35.443887 162.398457)">0.5</text>
     </g>
    </g>
    <g id="ytick_5">
     <g id="line2d_12">
      <g>
       <use xlink:href="#ma4aac08399" x="42.443887" y="127.744514" style="stroke: #000000; stroke-width: 0.8"/>
      </g>
     </g>
     <g id="text_13">
      <text style="font-size: 8px; font-family: 'Arial'; text-anchor: end" x="35.443887" y="130.656624" transform="rotate(-0 35.443887 130.656624)">1.0</text>
     </g>
    </g>
    <g id="ytick_6">
     <g id="line2d_13">
      <g>
       <use xlink:href="#ma4aac08399" x="42.443887" y="96.002681" style="stroke: #000000; stroke-width: 0.8"/>
      </g>
     </g>
     <g id="text_14">
      <text style="font-size: 8px; font-family: 'Arial'; text-anchor: end" x="35.443887" y="98.914791" transform="rotate(-0 35.443887 98.914791)">1.5</text>
     </g>
    </g>
    <g id="ytick_7">
     <g id="line2d_14">
      <g>
       <use xlink:href="#ma4aac08399" x="42.443887" y="64.260848" style="stroke: #000000; stroke-width: 0.8"/>
      </g>
     </g>
     <g id="text_15">
      <text style="font-size: 8px; font-family: 'Arial'; text-anchor: end" x="35.443887" y="67.172957" transform="rotate(-0 35.443887 67.172957)">2.0</text>
     </g>
    </g>
    <g id="text_16">
     <text style="font-size: 9px; font-family: 'Arial'; text-anchor: middle" x="13.757344" y="151.970824" transform="rotate(-90 13.757344 151.970824)">100E - 100E+Q baseline z</text>
    </g>
   </g>
   <g id="line2d_15">
    <path d="M 52.738355 199.333578 
L 53.816305 188.230718 
L 54.894246 182.10007 
L 55.972189 220.967301 
L 57.05013 171.4512 
L 58.128054 195.888925 
L 59.206002 200.981539 
L 60.283948 189.432004 
L 61.361884 200.143349 
L 62.439825 159.627689 
L 63.517777 205.835423 
L 64.595716 194.688227 
L 65.673657 204.760819 
L 66.751597 183.668463 
L 67.829538 194.740609 
L 68.90749 195.084678 
L 69.985429 202.103591 
L 71.063372 218.187907 
L 72.141304 178.841048 
L 73.219252 182.35717 
L 74.297193 182.251005 
L 75.375136 179.160094 
L 76.453079 205.660436 
L 77.531022 185.083246 
L 78.608967 200.404909 
L 79.686899 180.631584 
L 80.764852 173.128918 
L 81.842799 185.286117 
L 82.920733 189.302668 
L 83.998683 201.309354 
L 85.076631 196.544114 
L 86.154574 172.11503 
L 87.232508 221.700457 
L 88.310455 196.160652 
L 89.388406 207.988195 
L 90.466353 192.137261 
L 91.544299 181.247833 
L 92.62224 179.009709 
L 93.700187 170.805301 
L 94.778126 156.920715 
L 95.856069 194.783949 
L 96.934021 160.645815 
L 98.011969 173.281662 
L 99.089922 227.770418 
L 100.167856 186.882259 
L 101.245808 180.299314 
L 102.323744 207.962975 
L 103.401701 175.048951 
L 104.479649 193.409769 
L 105.557606 175.616257 
L 106.635542 183.506523 
L 107.713493 176.989913 
L 108.791449 186.702293 
L 109.869388 197.889191 
L 110.947326 176.499098 
L 112.025279 176.992345 
L 113.103231 172.541421 
L 114.181179 181.9885 
L 116.337079 129.897934 
L 117.415027 146.492114 
L 118.492972 105.668722 
L 119.570918 168.675433 
L 120.64887 150.913437 
L 121.72682 158.537925 
L 122.804767 149.036043 
L 123.882718 163.668036 
L 124.960672 174.144044 
L 126.038618 145.6443 
L 127.116581 154.63688 
L 128.194523 155.639627 
L 129.27247 146.203735 
L 130.350427 144.020793 
L 131.428377 162.706596 
L 132.506323 159.626279 
L 133.584284 125.341407 
L 134.66223 144.637821 
L 135.740179 156.72357 
L 136.818134 116.510247 
L 137.896091 124.560768 
L 138.974044 127.894317 
L 140.051991 124.697273 
L 141.129941 125.487877 
L 142.2079 170.249738 
L 143.285853 124.988578 
L 144.363805 137.759082 
L 145.441765 139.134845 
L 146.519708 131.075922 
L 147.597667 159.155285 
L 148.675615 144.723621 
L 149.753567 168.269589 
L 150.831522 141.724502 
L 151.909486 140.583231 
L 152.987433 125.578451 
L 154.065383 148.770413 
L 155.143336 143.628751 
L 156.221295 135.342932 
L 157.299257 140.831446 
L 158.377212 137.785715 
L 159.455168 132.657015 
L 160.533116 137.477847 
L 161.611073 116.841254 
L 162.689035 145.621978 
L 163.766989 160.748319 
L 164.844942 131.934289 
L 165.922894 143.341638 
L 167.000848 161.985792 
L 168.078813 136.575096 
L 169.156764 157.753428 
L 170.234729 131.826645 
L 171.312695 164.670901 
L 172.390643 152.3714 
L 173.468594 122.450088 
L 174.546564 118.469134 
L 175.624516 149.711181 
L 176.702476 122.066223 
L 177.780434 144.625876 
L 178.85838 119.143594 
L 179.936346 172.747009 
L 181.014312 139.135164 
L 182.092271 150.342458 
L 183.170235 134.151242 
L 184.24818 162.431353 
L 185.32614 156.601481 
L 186.404104 151.681277 
L 187.482067 157.497657 
L 188.560029 149.221685 
L 189.637989 136.551374 
L 190.715943 110.555712 
L 191.793898 148.310678 
L 192.871859 148.138024 
L 193.949817 140.359153 
L 195.02778 144.216274 
L 196.105744 108.67777 
L 197.183702 143.321692 
L 198.261666 158.094329 
L 199.339636 153.86127 
L 200.417598 152.947002 
L 201.495561 182.130453 
L 202.57351 154.003238 
L 203.651479 149.875272 
L 204.729442 144.261668 
L 205.807403 151.424845 
L 206.885366 179.741855 
L 207.963328 136.124431 
L 209.041291 99.439821 
L 210.119249 121.461104 
L 211.197204 117.658842 
L 212.275168 116.43345 
L 213.353137 111.547518 
L 214.431102 129.62686 
L 215.509065 127.68928 
L 216.587026 76.750562 
L 217.664986 127.162603 
L 218.742958 130.591415 
L 219.820922 151.70367 
L 220.898884 148.972875 
L 221.976853 138.604333 
L 223.05481 145.891209 
L 224.132771 156.577546 
L 225.210739 143.345436 
L 226.288706 205.205771 
L 227.366673 172.879575 
L 228.444641 181.640237 
L 229.522605 175.645988 
L 230.600574 139.376713 
L 231.678531 173.236845 
L 232.756498 151.493093 
L 233.834468 167.931278 
L 234.912428 154.251627 
L 235.990399 191.338708 
L 237.06837 196.553598 
L 238.146341 162.655706 
L 239.224294 189.802941 
L 240.302266 189.288964 
L 241.380233 183.020138 
L 242.458197 169.429945 
L 243.536159 179.539406 
L 244.614126 129.646075 
L 245.6921 178.70595 
L 246.770069 179.585956 
L 247.848034 181.28427 
L 248.926007 146.750078 
L 250.003972 179.86567 
L 251.081929 157.35134 
L 252.159903 150.877671 
L 253.237871 196.37206 
L 254.315833 169.777014 
L 255.39381 199.697373 
L 256.471773 174.182953 
L 257.549744 181.759628 
L 258.627717 152.388271 
L 258.627717 152.388271 
" clip-path="url(#p38169d8f92)" style="fill: none; stroke: #4a5358; stroke-width: 1.4; stroke-linecap: square"/>
   </g>
   <g id="line2d_16">
    <path d="M 52.738355 191.472761 
L 53.816305 187.016977 
L 54.894246 177.110292 
L 55.972189 207.167256 
L 57.05013 167.368345 
L 58.128054 192.884169 
L 59.206002 194.628835 
L 60.283948 189.543053 
L 61.361884 203.408786 
L 62.439825 162.275146 
L 63.517777 212.261203 
L 64.595716 193.889195 
L 65.673657 202.752344 
L 66.751597 185.948566 
L 67.829538 200.953055 
L 68.90749 193.408832 
L 69.985429 198.309993 
L 71.063372 212.991169 
L 72.141304 175.251961 
L 73.219252 181.949344 
L 74.297193 190.192921 
L 75.375136 178.292349 
L 76.453079 211.216522 
L 77.531022 188.332754 
L 78.608967 204.202247 
L 79.686899 187.026049 
L 80.764852 177.67556 
L 82.920733 194.330334 
L 83.998683 200.61236 
L 85.076631 198.892189 
L 86.154574 171.511854 
L 87.232508 217.119956 
L 88.310455 195.724281 
L 89.388406 209.49656 
L 90.466353 194.538255 
L 91.544299 184.668237 
L 92.62224 186.409545 
L 93.700187 178.131784 
L 94.778126 157.988024 
L 95.856069 193.09736 
L 96.934021 161.650166 
L 98.011969 176.136225 
L 99.089922 226.627111 
L 100.167856 174.395897 
L 101.245808 170.238316 
L 102.323744 205.808846 
L 103.401701 171.35391 
L 104.479649 187.167025 
L 105.557606 174.184761 
L 106.635542 189.593491 
L 107.713493 173.554797 
L 108.791449 191.190692 
L 109.869388 211.710975 
L 110.947326 179.794349 
L 112.025279 186.157878 
L 113.103231 180.8629 
L 114.181179 194.484107 
L 115.259127 166.460076 
L 116.337079 142.050958 
L 117.415027 164.7005 
L 118.492972 127.22517 
L 119.570918 190.73928 
L 120.64887 171.037911 
L 121.72682 176.084551 
L 122.804767 168.329881 
L 124.960672 198.495768 
L 126.038618 172.772994 
L 127.116581 185.572098 
L 128.194523 183.736985 
L 129.27247 168.624195 
L 130.350427 166.713725 
L 131.428377 180.511329 
L 132.506323 187.158003 
L 133.584284 149.429797 
L 134.66223 177.87694 
L 135.740179 183.785731 
L 136.818134 151.630145 
L 137.896091 151.466576 
L 138.974044 155.254028 
L 140.051991 154.628114 
L 141.129941 157.661658 
L 142.2079 201.823409 
L 143.285853 163.972911 
L 144.363805 173.845667 
L 145.441765 167.245638 
L 146.519708 163.571469 
L 147.597667 189.901196 
L 148.675615 171.294968 
L 149.753567 202.114062 
L 150.831522 175.355707 
L 151.909486 174.493431 
L 152.987433 155.776246 
L 154.065383 184.02965 
L 155.143336 182.054016 
L 156.221295 173.334661 
L 157.299257 175.724468 
L 158.377212 176.600068 
L 159.455168 168.002501 
L 160.533116 175.862874 
L 161.611073 152.501692 
L 162.689035 186.248736 
L 163.766989 191.951029 
L 164.844942 165.721541 
L 165.922894 177.62946 
L 167.000848 193.34534 
L 168.078813 164.033708 
L 169.156764 187.524666 
L 170.234729 170.528313 
L 171.312695 191.937922 
L 172.390643 187.471012 
L 173.468594 154.844331 
L 174.546564 155.741238 
L 175.624516 175.09003 
L 176.702476 150.076375 
L 177.780434 168.636843 
L 178.85838 147.920618 
L 179.936346 200.286819 
L 181.014312 157.138088 
L 182.092271 169.546286 
L 183.170235 156.456305 
L 184.24818 191.811011 
L 185.32614 179.547411 
L 186.404104 174.213259 
L 187.482067 184.480279 
L 188.560029 177.645135 
L 189.637989 157.748604 
L 190.715943 133.31403 
L 191.793898 175.958826 
L 192.871859 172.342272 
L 193.949817 164.36369 
L 195.02778 171.77016 
L 196.105744 135.06662 
L 197.183702 173.024165 
L 198.261666 182.905329 
L 199.339636 174.902888 
L 200.417598 173.88451 
L 201.495561 207.222827 
L 202.57351 179.518064 
L 203.651479 179.674424 
L 204.729442 172.948876 
L 205.807403 170.065444 
L 206.885366 211.355995 
L 207.963328 165.100429 
L 209.041291 140.721298 
L 210.119249 153.241175 
L 211.197204 155.903782 
L 212.275168 162.113342 
L 213.353137 156.343968 
L 214.431102 178.885374 
L 215.509065 174.385244 
L 216.587026 119.429815 
L 217.664986 168.814604 
L 218.742958 173.438182 
L 219.820922 190.042469 
L 220.898884 181.448226 
L 221.976853 178.642758 
L 223.05481 180.694043 
L 224.132771 190.637098 
L 225.210739 179.800335 
L 226.288706 228.288373 
L 227.366673 187.057203 
L 228.444641 192.740339 
L 229.522605 189.28003 
L 230.600574 165.499394 
L 231.678531 196.898454 
L 232.756498 173.422253 
L 233.834468 185.771814 
L 234.912428 167.447097 
L 235.990399 207.905082 
L 237.06837 218.885042 
L 238.146341 172.003549 
L 239.224294 204.717085 
L 240.302266 203.169601 
L 241.380233 195.685549 
L 242.458197 182.99301 
L 243.536159 194.029441 
L 244.614126 148.918179 
L 245.6921 199.078816 
L 246.770069 192.39366 
L 247.848034 192.218461 
L 248.926007 151.012404 
L 250.003972 191.199978 
L 251.081929 160.632401 
L 252.159903 159.723636 
L 253.237871 197.779047 
L 254.315833 180.569299 
L 255.39381 204.653427 
L 256.471773 177.268695 
L 257.549744 178.482786 
L 258.627717 157.611827 
L 258.627717 157.611827 
" clip-path="url(#p38169d8f92)" style="fill: none; stroke: #b2232e; stroke-width: 1.4; stroke-linecap: square"/>
   </g>
   <g id="line2d_17">
    <path d="M 52.738355 196.36027 
L 53.816305 187.98901 
L 54.894246 175.211599 
L 55.972189 213.704359 
L 57.05013 170.951851 
L 58.128054 191.851357 
L 59.206002 198.951889 
L 60.283948 190.004002 
L 61.361884 198.638352 
L 62.439825 159.6304 
L 63.517777 210.09269 
L 64.595716 195.816821 
L 65.673657 202.03706 
L 66.751597 187.531955 
L 67.829538 196.623036 
L 68.90749 191.122113 
L 69.985429 200.767053 
L 71.063372 212.621779 
L 72.141304 176.080697 
L 73.219252 185.357365 
L 74.297193 190.995345 
L 75.375136 178.969327 
L 76.453079 211.730325 
L 77.531022 185.745663 
L 78.608967 203.047491 
L 79.686899 182.80402 
L 80.764852 177.296061 
L 81.842799 184.56166 
L 82.920733 194.026546 
L 83.998683 200.001979 
L 85.076631 196.915306 
L 86.154574 171.864403 
L 87.232508 219.296887 
L 88.310455 196.7505 
L 89.388406 207.304013 
L 90.466353 194.61523 
L 91.544299 187.752994 
L 92.62224 183.614868 
L 93.700187 173.632844 
L 94.778126 159.232139 
L 95.856069 192.619331 
L 96.934021 160.188192 
L 98.011969 178.779287 
L 99.089922 229.853802 
L 100.167856 176.164657 
L 101.245808 175.949029 
L 102.323744 208.919839 
L 103.401701 173.081521 
L 104.479649 185.441229 
L 105.557606 177.23921 
L 106.635542 186.90426 
L 107.713493 175.145364 
L 108.791449 188.846789 
L 109.869388 209.708277 
L 110.947326 176.062265 
L 112.025279 182.858762 
L 113.103231 179.367156 
L 114.181179 190.310192 
L 115.259127 160.423073 
L 116.337079 137.131148 
L 117.415027 158.965514 
L 118.492972 120.608652 
L 119.570918 183.176986 
L 120.64887 165.897418 
L 121.72682 167.731748 
L 122.804767 161.947459 
L 124.960672 191.638088 
L 126.038618 166.685353 
L 127.116581 177.425085 
L 128.194523 175.703646 
L 129.27247 159.724389 
L 130.350427 162.567779 
L 131.428377 171.711471 
L 132.506323 176.414688 
L 133.584284 144.825311 
L 134.66223 166.082545 
L 135.740179 175.310592 
L 136.818134 137.144788 
L 137.896091 144.462698 
L 138.974044 149.110207 
L 140.051991 143.263582 
L 141.129941 149.754951 
L 142.2079 192.975646 
L 143.285853 153.282512 
L 144.363805 160.88463 
L 145.441765 161.21611 
L 146.519708 149.387697 
L 147.597667 178.736607 
L 148.675615 161.662451 
L 149.753567 192.017217 
L 150.831522 162.003576 
L 151.909486 162.410027 
L 152.987433 144.665478 
L 154.065383 171.877499 
L 155.143336 169.396327 
L 156.221295 163.48085 
L 157.299257 166.552761 
L 158.377212 163.302286 
L 159.455168 156.458877 
L 160.533116 168.201423 
L 161.611073 139.628676 
L 162.689035 173.078552 
L 163.766989 178.603151 
L 164.844942 150.700335 
L 167.000848 186.2175 
L 168.078813 156.040516 
L 169.156764 177.588721 
L 170.234729 161.537066 
L 171.312695 183.360161 
L 172.390643 174.095873 
L 173.468594 142.640003 
L 174.546564 144.370975 
L 175.624516 167.650471 
L 176.702476 142.695548 
L 177.780434 160.4907 
L 178.85838 138.935929 
L 179.936346 191.630742 
L 181.014312 149.263654 
L 182.092271 159.377026 
L 183.170235 147.374431 
L 184.24818 183.686867 
L 185.32614 171.299558 
L 186.404104 167.493232 
L 187.482067 173.714242 
L 188.560029 171.594839 
L 189.637989 150.261032 
L 190.715943 124.402355 
L 191.793898 166.176773 
L 192.871859 165.577692 
L 193.949817 155.743086 
L 195.02778 163.780652 
L 196.105744 127.098023 
L 197.183702 167.098469 
L 198.261666 177.213532 
L 199.339636 169.851364 
L 200.417598 166.102002 
L 201.495561 202.377847 
L 202.57351 170.80579 
L 203.651479 173.267872 
L 204.729442 163.27166 
L 205.807403 165.578369 
L 206.885366 198.338737 
L 207.963328 155.82791 
L 209.041291 128.102167 
L 210.119249 143.789532 
L 211.197204 145.827322 
L 212.275168 146.461952 
L 213.353137 140.054572 
L 214.431102 161.477526 
L 215.509065 162.804319 
L 216.587026 104.572577 
L 217.664986 158.466977 
L 218.742958 162.401979 
L 219.820922 179.512975 
L 220.898884 170.186511 
L 221.976853 170.147029 
L 223.05481 166.498595 
L 224.132771 180.740317 
L 225.210739 167.147328 
L 226.288706 219.987757 
L 227.366673 183.920531 
L 228.444641 185.8144 
L 229.522605 183.254543 
L 230.600574 154.070899 
L 231.678531 191.888968 
L 232.756498 164.811069 
L 233.834468 177.535223 
L 234.912428 159.487282 
L 235.990399 204.490848 
L 237.06837 213.905883 
L 238.146341 170.726079 
L 239.224294 196.795008 
L 240.302266 197.740205 
L 241.380233 192.662691 
L 242.458197 179.466579 
L 243.536159 188.604749 
L 244.614126 143.088257 
L 245.6921 191.0193 
L 246.770069 187.544711 
L 247.848034 189.100336 
L 248.926007 147.281323 
L 250.003972 188.548131 
L 251.081929 157.769719 
L 252.159903 156.691072 
L 253.237871 195.447862 
L 254.315833 177.831258 
L 255.39381 204.269946 
L 256.471773 175.722902 
L 257.549744 178.673321 
L 258.627717 155.914346 
L 258.627717 155.914346 
" clip-path="url(#p38169d8f92)" style="fill: none; stroke-dasharray: 5.18,2.24; stroke-dashoffset: 0; stroke: #79c7d3; stroke-width: 1.4"/>
   </g>
   <g id="line2d_18">
    <path d="M 42.443887 191.228181 
L 268.922185 191.228181 
" clip-path="url(#p38169d8f92)" style="fill: none; stroke: #d6dadf; stroke-width: 0.8; stroke-linecap: square"/>
   </g>
   <g id="patch_4">
    <path d="M 42.443887 257.429647 
L 42.443887 46.512 
" style="fill: none; stroke: #000000; stroke-width: 0.8; stroke-linejoin: miter; stroke-linecap: square"/>
   </g>
   <g id="patch_5">
    <path d="M 42.443887 257.429647 
L 268.922185 257.429647 
" style="fill: none; stroke: #000000; stroke-width: 0.8; stroke-linejoin: miter; stroke-linecap: square"/>
   </g>
   <g id="text_17">
    <text style="font-size: 10px; font-family: 'Arial'; text-anchor: start" x="42.443887" y="40.512" transform="rotate(-0 42.443887 40.512)">A  ROI40 condition contrast</text>
   </g>
   <g id="legend_1">
    <g id="line2d_19">
     <path d="M 48.743887 55.458191 
L 55.743887 55.458191 
L 62.743887 55.458191 
" style="fill: none; stroke: #4a5358; stroke-width: 1.4; stroke-linecap: square"/>
    </g>
    <g id="text_18">
     <text style="font-size: 7px; font-family: 'Arial'; text-anchor: start" x="68.343887" y="57.908191" transform="rotate(-0 68.343887 57.908191)">raw</text>
    </g>
    <g id="line2d_20">
     <path d="M 48.743887 65.527527 
L 55.743887 65.527527 
L 62.743887 65.527527 
" style="fill: none; stroke: #b2232e; stroke-width: 1.4; stroke-linecap: square"/>
    </g>
    <g id="text_19">
     <text style="font-size: 7px; font-family: 'Arial'; text-anchor: start" x="68.343887" y="67.977527" transform="rotate(-0 68.343887 67.977527)">carma_v3</text>
    </g>
    <g id="line2d_21">
     <path d="M 48.743887 75.596863 
L 55.743887 75.596863 
L 62.743887 75.596863 
" style="fill: none; stroke-dasharray: 5.18,2.24; stroke-dashoffset: 0; stroke: #79c7d3; stroke-width: 1.4"/>
    </g>
    <g id="text_20">
     <text style="font-size: 7px; font-family: 'Arial'; text-anchor: start" x="68.343887" y="78.046863" transform="rotate(-0 68.343887 78.046863)">suite2p</text>
    </g>
   </g>
  </g>
  <g id="axes_2">
   <g id="patch_6">
    <path d="M 348.189589 257.429647 
L 574.667887 257.429647 
L 574.667887 46.512 
L 348.189589 46.512 
z
" style="fill: #ffffff"/>
   </g>
   <g id="patch_7">
    <path d="M 358.484057 257.429647 
L 391.840434 257.429647 
L 391.840434 179.115296 
L 358.484057 179.115296 
z
" clip-path="url(#pe0bf3084ab)" style="fill: #4a5358"/>
   </g>
   <g id="patch_8">
    <path d="M 415.995052 257.429647 
L 449.351429 257.429647 
L 449.351429 86.285255 
L 415.995052 86.285255 
z
" clip-path="url(#pe0bf3084ab)" style="fill: #a8adb2"/>
   </g>
   <g id="patch_9">
    <path d="M 473.506047 257.429647 
L 506.862424 257.429647 
L 506.862424 223.949055 
L 473.506047 223.949055 
z
" clip-path="url(#pe0bf3084ab)" style="fill: #b2232e"/>
   </g>
   <g id="patch_10">
    <path d="M 531.017042 257.429647 
L 564.373419 257.429647 
L 564.373419 210.194981 
L 531.017042 210.194981 
z
" clip-path="url(#pe0bf3084ab)" style="fill: #79c7d3"/>
   </g>
   <g id="matplotlib.axis_3">
    <g id="xtick_8">
     <g id="line2d_22">
      <g>
       <use xlink:href="#mf40e2ff516" x="375.162245" y="257.429647" style="stroke: #000000; stroke-width: 0.8"/>
      </g>
     </g>
     <g id="text_21">
      <text style="font-size: 8px; font-family: 'Arial'" transform="translate(362.768421 275.155731) rotate(-25)">raw</text>
     </g>
    </g>
    <g id="xtick_9">
     <g id="line2d_23">
      <g>
       <use xlink:href="#mf40e2ff516" x="432.67324" y="257.429647" style="stroke: #000000; stroke-width: 0.8"/>
      </g>
     </g>
     <g id="text_22">
      <text style="font-size: 8px; font-family: 'Arial'" transform="translate(396.903406 286.056113) rotate(-25)">CaRMA bg</text>
     </g>
    </g>
    <g id="xtick_10">
     <g id="line2d_24">
      <g>
       <use xlink:href="#mf40e2ff516" x="490.184235" y="257.429647" style="stroke: #000000; stroke-width: 0.8"/>
      </g>
     </g>
     <g id="text_23">
      <text style="font-size: 8px; font-family: 'Arial'" transform="translate(454.821172 285.866463) rotate(-25)">CaRMA v3</text>
     </g>
    </g>
    <g id="xtick_11">
     <g id="line2d_25">
      <g>
       <use xlink:href="#mf40e2ff516" x="547.69523" y="257.429647" style="stroke: #000000; stroke-width: 0.8"/>
      </g>
     </g>
     <g id="text_24">
      <text style="font-size: 8px; font-family: 'Arial'" transform="translate(522.39445 281.174344) rotate(-25)">Suite2p</text>
     </g>
    </g>
   </g>
   <g id="matplotlib.axis_4">
    <g id="ytick_8">
     <g id="line2d_26">
      <g>
       <use xlink:href="#ma4aac08399" x="348.189589" y="257.429647" style="stroke: #000000; stroke-width: 0.8"/>
      </g>
     </g>
     <g id="text_25">
      <text style="font-size: 8px; font-family: 'Arial'; text-anchor: end" x="341.189589" y="260.341756" transform="rotate(-0 341.189589 260.341756)">0.0</text>
     </g>
    </g>
    <g id="ytick_9">
     <g id="line2d_27">
      <g>
       <use xlink:href="#ma4aac08399" x="348.189589" y="233.279063" style="stroke: #000000; stroke-width: 0.8"/>
      </g>
     </g>
     <g id="text_26">
      <text style="font-size: 8px; font-family: 'Arial'; text-anchor: end" x="341.189589" y="236.191173" transform="rotate(-0 341.189589 236.191173)">0.2</text>
     </g>
    </g>
    <g id="ytick_10">
     <g id="line2d_28">
      <g>
       <use xlink:href="#ma4aac08399" x="348.189589" y="209.12848" style="stroke: #000000; stroke-width: 0.8"/>
      </g>
     </g>
     <g id="text_27">
      <text style="font-size: 8px; font-family: 'Arial'; text-anchor: end" x="341.189589" y="212.040589" transform="rotate(-0 341.189589 212.040589)">0.4</text>
     </g>
    </g>
    <g id="ytick_11">
     <g id="line2d_29">
      <g>
       <use xlink:href="#ma4aac08399" x="348.189589" y="184.977896" style="stroke: #000000; stroke-width: 0.8"/>
      </g>
     </g>
     <g id="text_28">
      <text style="font-size: 8px; font-family: 'Arial'; text-anchor: end" x="341.189589" y="187.890005" transform="rotate(-0 341.189589 187.890005)">0.6</text>
     </g>
    </g>
    <g id="ytick_12">
     <g id="line2d_30">
      <g>
       <use xlink:href="#ma4aac08399" x="348.189589" y="160.827312" style="stroke: #000000; stroke-width: 0.8"/>
      </g>
     </g>
     <g id="text_29">
      <text style="font-size: 8px; font-family: 'Arial'; text-anchor: end" x="341.189589" y="163.739422" transform="rotate(-0 341.189589 163.739422)">0.8</text>
     </g>
    </g>
    <g id="ytick_13">
     <g id="line2d_31">
      <g>
       <use xlink:href="#ma4aac08399" x="348.189589" y="136.676729" style="stroke: #000000; stroke-width: 0.8"/>
      </g>
     </g>
     <g id="text_30">
      <text style="font-size: 8px; font-family: 'Arial'; text-anchor: end" x="341.189589" y="139.588838" transform="rotate(-0 341.189589 139.588838)">1.0</text>
     </g>
    </g>
    <g id="ytick_14">
     <g id="line2d_32">
      <g>
       <use xlink:href="#ma4aac08399" x="348.189589" y="112.526145" style="stroke: #000000; stroke-width: 0.8"/>
      </g>
     </g>
     <g id="text_31">
      <text style="font-size: 8px; font-family: 'Arial'; text-anchor: end" x="341.189589" y="115.438255" transform="rotate(-0 341.189589 115.438255)">1.2</text>
     </g>
    </g>
    <g id="ytick_15">
     <g id="line2d_33">
      <g>
       <use xlink:href="#ma4aac08399" x="348.189589" y="88.375562" style="stroke: #000000; stroke-width: 0.8"/>
      </g>
     </g>
     <g id="text_32">
      <text style="font-size: 8px; font-family: 'Arial'; text-anchor: end" x="341.189589" y="91.287671" transform="rotate(-0 341.189589 91.287671)">1.4</text>
     </g>
    </g>
    <g id="ytick_16">
     <g id="line2d_34">
      <g>
       <use xlink:href="#ma4aac08399" x="348.189589" y="64.224978" style="stroke: #000000; stroke-width: 0.8"/>
      </g>
     </g>
     <g id="text_33">
      <text style="font-size: 8px; font-family: 'Arial'; text-anchor: end" x="341.189589" y="67.137087" transform="rotate(-0 341.189589 67.137087)">1.6</text>
     </g>
    </g>
    <g id="text_34">
     <text style="font-size: 9px; font-family: 'Arial'; text-anchor: middle" x="324.175546" y="151.970824" transform="rotate(-90 324.175546 151.970824)">100E condition beta</text>
    </g>
   </g>
   <g id="LineCollection_1">
    <path d="M 375.162245 193.634513 
L 375.162245 164.596078 
" clip-path="url(#pe0bf3084ab)" style="fill: none; stroke: #000000; stroke-width: 1.5"/>
    <path d="M 432.67324 116.014813 
L 432.67324 56.555697 
" clip-path="url(#pe0bf3084ab)" style="fill: none; stroke: #000000; stroke-width: 1.5"/>
    <path d="M 490.184235 233.023353 
L 490.184235 214.874756 
" clip-path="url(#pe0bf3084ab)" style="fill: none; stroke: #000000; stroke-width: 1.5"/>
    <path d="M 547.69523 220.551856 
L 547.69523 199.838106 
" clip-path="url(#pe0bf3084ab)" style="fill: none; stroke: #000000; stroke-width: 1.5"/>
   </g>
   <g id="line2d_35">
    <defs>
     <path id="me716d9ed2c" d="M 3 0 
L -3 -0 
" style="stroke: #000000"/>
    </defs>
    <g clip-path="url(#pe0bf3084ab)">
     <use xlink:href="#me716d9ed2c" x="375.162245" y="193.634513" style="fill: #1f77b4; stroke: #000000"/>
     <use xlink:href="#me716d9ed2c" x="432.67324" y="116.014813" style="fill: #1f77b4; stroke: #000000"/>
     <use xlink:href="#me716d9ed2c" x="490.184235" y="233.023353" style="fill: #1f77b4; stroke: #000000"/>
     <use xlink:href="#me716d9ed2c" x="547.69523" y="220.551856" style="fill: #1f77b4; stroke: #000000"/>
    </g>
   </g>
   <g id="line2d_36">
    <g clip-path="url(#pe0bf3084ab)">
     <use xlink:href="#me716d9ed2c" x="375.162245" y="164.596078" style="fill: #1f77b4; stroke: #000000"/>
     <use xlink:href="#me716d9ed2c" x="432.67324" y="56.555697" style="fill: #1f77b4; stroke: #000000"/>
     <use xlink:href="#me716d9ed2c" x="490.184235" y="214.874756" style="fill: #1f77b4; stroke: #000000"/>
     <use xlink:href="#me716d9ed2c" x="547.69523" y="199.838106" style="fill: #1f77b4; stroke: #000000"/>
    </g>
   </g>
   <g id="line2d_37">
    <path d="M 348.189589 257.429647 
L 574.667887 257.429647 
" clip-path="url(#pe0bf3084ab)" style="fill: none; stroke: #d6dadf; stroke-width: 0.8; stroke-linecap: square"/>
   </g>
   <g id="patch_11">
    <path d="M 348.189589 257.429647 
L 348.189589 46.512 
" style="fill: none; stroke: #000000; stroke-width: 0.8; stroke-linejoin: miter; stroke-linecap: square"/>
   </g>
   <g id="patch_12">
    <path d="M 348.189589 257.429647 
L 574.667887 257.429647 
" style="fill: none; stroke: #000000; stroke-width: 0.8; stroke-linejoin: miter; stroke-linecap: square"/>
   </g>
   <g id="text_35">
    <text style="font-size: 10px; font-family: 'Arial'; text-anchor: start" x="348.189589" y="40.512" transform="rotate(-0 348.189589 40.512)">B  ROI40 effect depends on subtraction</text>
   </g>
  </g>
  <g id="axes_3">
   <g id="patch_13">
    <path d="M 42.443887 548.496 
L 268.922185 548.496 
L 268.922185 337.578353 
L 42.443887 337.578353 
z
" style="fill: #ffffff"/>
   </g>
   <g id="PathCollection_1">
    <defs>
     <path id="C0_0_46d186340d" d="M 0 2.738613 
C 0.726289 2.738613 1.422928 2.450055 1.936492 1.936492 
C 2.450055 1.422928 2.738613 0.726289 2.738613 -0 
C 2.738613 -0.726289 2.450055 -1.422928 1.936492 -1.936492 
C 1.422928 -2.450055 0.726289 -2.738613 0 -2.738613 
C -0.726289 -2.738613 -1.422928 -2.450055 -1.936492 -1.936492 
C -2.450055 -1.422928 -2.738613 -0.726289 -2.738613 0 
C -2.738613 0.726289 -2.450055 1.422928 -1.936492 1.936492 
C -1.422928 2.450055 -0.726289 2.738613 0 2.738613 
z
"/>
    </defs>
    <g clip-path="url(#p71c79f3a5c)">
     <use xlink:href="#C0_0_46d186340d" x="174.183851" y="435.290159" style="fill: #b2232e"/>
    </g>
    <g clip-path="url(#p71c79f3a5c)">
     <use xlink:href="#C0_0_46d186340d" x="134.746878" y="465.287406" style="fill: #b2232e"/>
    </g>
    <g clip-path="url(#p71c79f3a5c)">
     <use xlink:href="#C0_0_46d186340d" x="168.164854" y="445.871544" style="fill: #b2232e"/>
    </g>
    <g clip-path="url(#p71c79f3a5c)">
     <use xlink:href="#C0_0_46d186340d" x="186.587629" y="442.32641" style="fill: #b2232e"/>
    </g>
    <g clip-path="url(#p71c79f3a5c)">
     <use xlink:href="#C0_0_46d186340d" x="268.922185" y="397.951903" style="fill: #b2232e"/>
    </g>
    <g clip-path="url(#p71c79f3a5c)">
     <use xlink:href="#C0_0_46d186340d" x="175.075757" y="459.479778" style="fill: #b2232e"/>
    </g>
    <g clip-path="url(#p71c79f3a5c)">
     <use xlink:href="#C0_0_46d186340d" x="160.570118" y="460.790159" style="fill: #b2232e"/>
    </g>
    <g clip-path="url(#p71c79f3a5c)">
     <use xlink:href="#C0_0_46d186340d" x="150.03217" y="456.727195" style="fill: #b2232e"/>
    </g>
    <g clip-path="url(#p71c79f3a5c)">
     <use xlink:href="#C0_0_46d186340d" x="148.176566" y="452.240949" style="fill: #b2232e"/>
    </g>
    <g clip-path="url(#p71c79f3a5c)">
     <use xlink:href="#C0_0_46d186340d" x="233.083162" y="413.338087" style="fill: #b2232e"/>
    </g>
    <g clip-path="url(#p71c79f3a5c)">
     <use xlink:href="#C0_0_46d186340d" x="172.235335" y="439.236026" style="fill: #b2232e"/>
    </g>
    <g clip-path="url(#p71c79f3a5c)">
     <use xlink:href="#C0_0_46d186340d" x="122.416892" y="480.407644" style="fill: #b2232e"/>
    </g>
    <g clip-path="url(#p71c79f3a5c)">
     <use xlink:href="#C0_0_46d186340d" x="195.439839" y="444.692984" style="fill: #b2232e"/>
    </g>
    <g clip-path="url(#p71c79f3a5c)">
     <use xlink:href="#C0_0_46d186340d" x="160.07747" y="451.638383" style="fill: #b2232e"/>
    </g>
    <g clip-path="url(#p71c79f3a5c)">
     <use xlink:href="#C0_0_46d186340d" x="143.712207" y="467.950206" style="fill: #b2232e"/>
    </g>
    <g clip-path="url(#p71c79f3a5c)">
     <use xlink:href="#C0_0_46d186340d" x="165.940346" y="447.815817" style="fill: #b2232e"/>
    </g>
   </g>
   <g id="PathCollection_2">
    <defs>
     <path id="C1_0_aaa5019bd7" d="M 0 2.738613 
C 0.726289 2.738613 1.422928 2.450055 1.936492 1.936492 
C 2.450055 1.422928 2.738613 0.726289 2.738613 -0 
C 2.738613 -0.726289 2.450055 -1.422928 1.936492 -1.936492 
C 1.422928 -2.450055 0.726289 -2.738613 0 -2.738613 
C -0.726289 -2.738613 -1.422928 -2.450055 -1.936492 -1.936492 
C -2.450055 -1.422928 -2.738613 -0.726289 -2.738613 0 
C -2.738613 0.726289 -2.450055 1.422928 -1.936492 1.936492 
C -1.422928 2.450055 -0.726289 2.738613 0 2.738613 
z
"/>
    </defs>
    <g clip-path="url(#p71c79f3a5c)">
     <use xlink:href="#C1_0_aaa5019bd7" x="174.183851" y="433.835148" style="fill: none; stroke: #79c7d3"/>
    </g>
    <g clip-path="url(#p71c79f3a5c)">
     <use xlink:href="#C1_0_aaa5019bd7" x="134.746878" y="464.645456" style="fill: none; stroke: #79c7d3"/>
    </g>
    <g clip-path="url(#p71c79f3a5c)">
     <use xlink:href="#C1_0_aaa5019bd7" x="168.164854" y="441.197573" style="fill: none; stroke: #79c7d3"/>
    </g>
    <g clip-path="url(#p71c79f3a5c)">
     <use xlink:href="#C1_0_aaa5019bd7" x="186.587629" y="434.943466" style="fill: none; stroke: #79c7d3"/>
    </g>
    <g clip-path="url(#p71c79f3a5c)">
     <use xlink:href="#C1_0_aaa5019bd7" x="268.922185" y="379.430542" style="fill: none; stroke: #79c7d3"/>
    </g>
    <g clip-path="url(#p71c79f3a5c)">
     <use xlink:href="#C1_0_aaa5019bd7" x="175.075757" y="451.870131" style="fill: none; stroke: #79c7d3"/>
    </g>
    <g clip-path="url(#p71c79f3a5c)">
     <use xlink:href="#C1_0_aaa5019bd7" x="160.570118" y="457.026612" style="fill: none; stroke: #79c7d3"/>
    </g>
    <g clip-path="url(#p71c79f3a5c)">
     <use xlink:href="#C1_0_aaa5019bd7" x="150.03217" y="452.881027" style="fill: none; stroke: #79c7d3"/>
    </g>
    <g clip-path="url(#p71c79f3a5c)">
     <use xlink:href="#C1_0_aaa5019bd7" x="148.176566" y="451.845217" style="fill: none; stroke: #79c7d3"/>
    </g>
    <g clip-path="url(#p71c79f3a5c)">
     <use xlink:href="#C1_0_aaa5019bd7" x="233.083162" y="407.97197" style="fill: none; stroke: #79c7d3"/>
    </g>
    <g clip-path="url(#p71c79f3a5c)">
     <use xlink:href="#C1_0_aaa5019bd7" x="172.235335" y="435.44315" style="fill: none; stroke: #79c7d3"/>
    </g>
    <g clip-path="url(#p71c79f3a5c)">
     <use xlink:href="#C1_0_aaa5019bd7" x="122.416892" y="475.930689" style="fill: none; stroke: #79c7d3"/>
    </g>
    <g clip-path="url(#p71c79f3a5c)">
     <use xlink:href="#C1_0_aaa5019bd7" x="195.439839" y="432.57819" style="fill: none; stroke: #79c7d3"/>
    </g>
    <g clip-path="url(#p71c79f3a5c)">
     <use xlink:href="#C1_0_aaa5019bd7" x="160.07747" y="447.503795" style="fill: none; stroke: #79c7d3"/>
    </g>
    <g clip-path="url(#p71c79f3a5c)">
     <use xlink:href="#C1_0_aaa5019bd7" x="143.712207" y="462.770056" style="fill: none; stroke: #79c7d3"/>
    </g>
    <g clip-path="url(#p71c79f3a5c)">
     <use xlink:href="#C1_0_aaa5019bd7" x="165.940346" y="443.671753" style="fill: none; stroke: #79c7d3"/>
    </g>
   </g>
   <g id="matplotlib.axis_5">
    <g id="xtick_12">
     <g id="line2d_38">
      <g>
       <use xlink:href="#mf40e2ff516" x="50.920952" y="548.496" style="stroke: #000000; stroke-width: 0.8"/>
      </g>
     </g>
     <g id="text_36">
      <text style="font-size: 8px; font-family: 'Arial'; text-anchor: middle" x="50.920952" y="561.320219" transform="rotate(-0 50.920952 561.320219)">−0.6</text>
     </g>
    </g>
    <g id="xtick_13">
     <g id="line2d_39">
      <g>
       <use xlink:href="#mf40e2ff516" x="85.841646" y="548.496" style="stroke: #000000; stroke-width: 0.8"/>
      </g>
     </g>
     <g id="text_37">
      <text style="font-size: 8px; font-family: 'Arial'; text-anchor: middle" x="85.841646" y="561.320219" transform="rotate(-0 85.841646 561.320219)">−0.4</text>
     </g>
    </g>
    <g id="xtick_14">
     <g id="line2d_40">
      <g>
       <use xlink:href="#mf40e2ff516" x="120.762341" y="548.496" style="stroke: #000000; stroke-width: 0.8"/>
      </g>
     </g>
     <g id="text_38">
      <text style="font-size: 8px; font-family: 'Arial'; text-anchor: middle" x="120.762341" y="561.320219" transform="rotate(-0 120.762341 561.320219)">−0.2</text>
     </g>
    </g>
    <g id="xtick_15">
     <g id="line2d_41">
      <g>
       <use xlink:href="#mf40e2ff516" x="155.683036" y="548.496" style="stroke: #000000; stroke-width: 0.8"/>
      </g>
     </g>
     <g id="text_39">
      <text style="font-size: 8px; font-family: 'Arial'; text-anchor: middle" x="155.683036" y="561.320219" transform="rotate(-0 155.683036 561.320219)">0.0</text>
     </g>
    </g>
    <g id="xtick_16">
     <g id="line2d_42">
      <g>
       <use xlink:href="#mf40e2ff516" x="190.60373" y="548.496" style="stroke: #000000; stroke-width: 0.8"/>
      </g>
     </g>
     <g id="text_40">
      <text style="font-size: 8px; font-family: 'Arial'; text-anchor: middle" x="190.60373" y="561.320219" transform="rotate(-0 190.60373 561.320219)">0.2</text>
     </g>
    </g>
    <g id="xtick_17">
     <g id="line2d_43">
      <g>
       <use xlink:href="#mf40e2ff516" x="225.524425" y="548.496" style="stroke: #000000; stroke-width: 0.8"/>
      </g>
     </g>
     <g id="text_41">
      <text style="font-size: 8px; font-family: 'Arial'; text-anchor: middle" x="225.524425" y="561.320219" transform="rotate(-0 225.524425 561.320219)">0.4</text>
     </g>
    </g>
    <g id="xtick_18">
     <g id="line2d_44">
      <g>
       <use xlink:href="#mf40e2ff516" x="260.445119" y="548.496" style="stroke: #000000; stroke-width: 0.8"/>
      </g>
     </g>
     <g id="text_42">
      <text style="font-size: 8px; font-family: 'Arial'; text-anchor: middle" x="260.445119" y="561.320219" transform="rotate(-0 260.445119 561.320219)">0.6</text>
     </g>
    </g>
    <g id="text_43">
     <text style="font-size: 9px; font-family: 'Arial'; text-anchor: middle" x="155.683036" y="573.556059" transform="rotate(-0 155.683036 573.556059)">Raw condition beta</text>
    </g>
   </g>
   <g id="matplotlib.axis_6">
    <g id="ytick_17">
     <g id="line2d_45">
      <g>
       <use xlink:href="#ma4aac08399" x="42.443887" y="540.601369" style="stroke: #000000; stroke-width: 0.8"/>
      </g>
     </g>
     <g id="text_44">
      <text style="font-size: 8px; font-family: 'Arial'; text-anchor: end" x="35.443887" y="543.513478" transform="rotate(-0 35.443887 543.513478)">−0.6</text>
     </g>
    </g>
    <g id="ytick_18">
     <g id="line2d_46">
      <g>
       <use xlink:href="#ma4aac08399" x="42.443887" y="508.079971" style="stroke: #000000; stroke-width: 0.8"/>
      </g>
     </g>
     <g id="text_45">
      <text style="font-size: 8px; font-family: 'Arial'; text-anchor: end" x="35.443887" y="510.992081" transform="rotate(-0 35.443887 510.992081)">−0.4</text>
     </g>
    </g>
    <g id="ytick_19">
     <g id="line2d_47">
      <g>
       <use xlink:href="#ma4aac08399" x="42.443887" y="475.558574" style="stroke: #000000; stroke-width: 0.8"/>
      </g>
     </g>
     <g id="text_46">
      <text style="font-size: 8px; font-family: 'Arial'; text-anchor: end" x="35.443887" y="478.470683" transform="rotate(-0 35.443887 478.470683)">−0.2</text>
     </g>
    </g>
    <g id="ytick_20">
     <g id="line2d_48">
      <g>
       <use xlink:href="#ma4aac08399" x="42.443887" y="443.037176" style="stroke: #000000; stroke-width: 0.8"/>
      </g>
     </g>
     <g id="text_47">
      <text style="font-size: 8px; font-family: 'Arial'; text-anchor: end" x="35.443887" y="445.949286" transform="rotate(-0 35.443887 445.949286)">0.0</text>
     </g>
    </g>
    <g id="ytick_21">
     <g id="line2d_49">
      <g>
       <use xlink:href="#ma4aac08399" x="42.443887" y="410.515779" style="stroke: #000000; stroke-width: 0.8"/>
      </g>
     </g>
     <g id="text_48">
      <text style="font-size: 8px; font-family: 'Arial'; text-anchor: end" x="35.443887" y="413.427888" transform="rotate(-0 35.443887 413.427888)">0.2</text>
     </g>
    </g>
    <g id="ytick_22">
     <g id="line2d_50">
      <g>
       <use xlink:href="#ma4aac08399" x="42.443887" y="377.994382" style="stroke: #000000; stroke-width: 0.8"/>
      </g>
     </g>
     <g id="text_49">
      <text style="font-size: 8px; font-family: 'Arial'; text-anchor: end" x="35.443887" y="380.906491" transform="rotate(-0 35.443887 380.906491)">0.4</text>
     </g>
    </g>
    <g id="ytick_23">
     <g id="line2d_51">
      <g>
       <use xlink:href="#ma4aac08399" x="42.443887" y="345.472984" style="stroke: #000000; stroke-width: 0.8"/>
      </g>
     </g>
     <g id="text_50">
      <text style="font-size: 8px; font-family: 'Arial'; text-anchor: end" x="35.443887" y="348.385093" transform="rotate(-0 35.443887 348.385093)">0.6</text>
     </g>
    </g>
    <g id="text_51">
     <text style="font-size: 9px; font-family: 'Arial'; text-anchor: middle" x="13.757344" y="443.037176" transform="rotate(-90 13.757344 443.037176)">Corrected condition beta</text>
    </g>
   </g>
   <g id="line2d_52">
    <path d="M 42.443887 548.496 
L 268.922185 337.578353 
" clip-path="url(#p71c79f3a5c)" style="fill: none; stroke-dasharray: 2.96,1.28; stroke-dashoffset: 0; stroke: #d6dadf; stroke-width: 0.8"/>
   </g>
   <g id="patch_14">
    <path d="M 42.443887 548.496 
L 42.443887 337.578353 
" style="fill: none; stroke: #000000; stroke-width: 0.8; stroke-linejoin: miter; stroke-linecap: square"/>
   </g>
   <g id="patch_15">
    <path d="M 42.443887 548.496 
L 268.922185 548.496 
" style="fill: none; stroke: #000000; stroke-width: 0.8; stroke-linejoin: miter; stroke-linecap: square"/>
   </g>
   <g id="text_52">
    <text style="font-size: 10px; font-family: 'Arial'; text-anchor: start" x="42.443887" y="331.578353" transform="rotate(-0 42.443887 331.578353)">C  Correction changes event effect magnitude</text>
   </g>
   <g id="legend_2">
    <g id="PathCollection_3">
     <path d="M 55.743887 349.875657 
C 56.470175 349.875657 57.166815 349.5871 57.680378 349.073536 
C 58.193942 348.559972 58.4825 347.863333 58.4825 347.137044 
C 58.4825 346.410756 58.193942 345.714116 57.680378 345.200553 
C 57.166815 344.686989 56.470175 344.398432 55.743887 344.398432 
C 55.017598 344.398432 54.320959 344.686989 53.807395 345.200553 
C 53.293831 345.714116 53.005274 346.410756 53.005274 347.137044 
C 53.005274 347.863333 53.293831 348.559972 53.807395 349.073536 
C 54.320959 349.5871 55.017598 349.875657 55.743887 349.875657 
z
" style="fill: #b2232e"/>
    </g>
    <g id="text_53">
     <text style="font-size: 7px; font-family: 'Arial'; text-anchor: start" x="68.343887" y="348.974544" transform="rotate(-0 68.343887 348.974544)">CaRMA v3  r=0.94</text>
    </g>
    <g id="PathCollection_4">
     <path d="M 55.743887 359.944993 
C 56.470175 359.944993 57.166815 359.656436 57.680378 359.142872 
C 58.193942 358.629308 58.4825 357.932669 58.4825 357.20638 
C 58.4825 356.480092 58.193942 355.783452 57.680378 355.269889 
C 57.166815 354.756325 56.470175 354.467767 55.743887 354.467767 
C 55.017598 354.467767 54.320959 354.756325 53.807395 355.269889 
C 53.293831 355.783452 53.005274 356.480092 53.005274 357.20638 
C 53.005274 357.932669 53.293831 358.629308 53.807395 359.142872 
C 54.320959 359.656436 55.017598 359.944993 55.743887 359.944993 
L 55.743887 359.944993 
z
" style="fill: none; stroke: #79c7d3"/>
    </g>
    <g id="text_54">
     <text style="font-size: 7px; font-family: 'Arial'; text-anchor: start" x="68.343887" y="359.04388" transform="rotate(-0 68.343887 359.04388)">Suite2p  r=0.97</text>
    </g>
   </g>
  </g>
  <g id="axes_4">
   <g id="patch_16">
    <path d="M 348.189589 548.496 
L 574.667887 548.496 
L 574.667887 337.578353 
L 348.189589 337.578353 
z
" style="fill: #ffffff"/>
   </g>
   <g id="PathCollection_5">
    <defs>
     <path id="C2_0_7f660d787d" d="M 0 2.645751 
C 0.701661 2.645751 1.374679 2.366978 1.870829 1.870829 
C 2.366978 1.374679 2.645751 0.701661 2.645751 -0 
C 2.645751 -0.701661 2.366978 -1.374679 1.870829 -1.870829 
C 1.374679 -2.366978 0.701661 -2.645751 0 -2.645751 
C -0.701661 -2.645751 -1.374679 -2.366978 -1.870829 -1.870829 
C -2.366978 -1.374679 -2.645751 -0.701661 -2.645751 0 
C -2.645751 0.701661 -2.366978 1.374679 -1.870829 1.870829 
C -1.374679 2.366978 -0.701661 2.645751 0 2.645751 
z
"/>
    </defs>
    <g clip-path="url(#p5b585b0c06)">
     <use xlink:href="#C2_0_7f660d787d" x="472.218749" y="431.101219" style="fill: #a8adb2"/>
    </g>
    <g clip-path="url(#p5b585b0c06)">
     <use xlink:href="#C2_0_7f660d787d" x="430.438716" y="471.065293" style="fill: #a8adb2"/>
    </g>
    <g clip-path="url(#p5b585b0c06)">
     <use xlink:href="#C2_0_7f660d787d" x="457.481044" y="440.651025" style="fill: #a8adb2"/>
    </g>
    <g clip-path="url(#p5b585b0c06)">
     <use xlink:href="#C2_0_7f660d787d" x="462.418691" y="432.538818" style="fill: #a8adb2"/>
    </g>
    <g clip-path="url(#p5b585b0c06)">
     <use xlink:href="#C2_0_7f660d787d" x="438.527555" y="454.494408" style="fill: #a8adb2"/>
    </g>
    <g clip-path="url(#p5b585b0c06)">
     <use xlink:href="#C2_0_7f660d787d" x="436.702461" y="461.182884" style="fill: #a8adb2"/>
    </g>
    <g clip-path="url(#p5b585b0c06)">
     <use xlink:href="#C2_0_7f660d787d" x="442.36134" y="455.805642" style="fill: #a8adb2"/>
    </g>
    <g clip-path="url(#p5b585b0c06)">
     <use xlink:href="#C2_0_7f660d787d" x="448.609763" y="454.462092" style="fill: #a8adb2"/>
    </g>
    <g clip-path="url(#p5b585b0c06)">
     <use xlink:href="#C2_0_7f660d787d" x="502.793499" y="397.554071" style="fill: #a8adb2"/>
    </g>
    <g clip-path="url(#p5b585b0c06)">
     <use xlink:href="#C2_0_7f660d787d" x="466.722963" y="433.18696" style="fill: #a8adb2"/>
    </g>
    <g clip-path="url(#p5b585b0c06)">
     <use xlink:href="#C2_0_7f660d787d" x="459.122537" y="429.470817" style="fill: #a8adb2"/>
    </g>
    <g clip-path="url(#p5b585b0c06)">
     <use xlink:href="#C2_0_7f660d787d" x="449.449015" y="448.83083" style="fill: #a8adb2"/>
    </g>
    <g clip-path="url(#p5b585b0c06)">
     <use xlink:href="#C2_0_7f660d787d" x="454.773069" y="443.860287" style="fill: #a8adb2"/>
    </g>
   </g>
   <g id="PathCollection_6">
    <defs>
     <path id="C3_0_54670f6c50" d="M 0 2.915476 
C 0.773193 2.915476 1.514823 2.608283 2.061553 2.061553 
C 2.608283 1.514823 2.915476 0.773193 2.915476 -0 
C 2.915476 -0.773193 2.608283 -1.514823 2.061553 -2.061553 
C 1.514823 -2.608283 0.773193 -2.915476 0 -2.915476 
C -0.773193 -2.915476 -1.514823 -2.608283 -2.061553 -2.061553 
C -2.608283 -1.514823 -2.915476 -0.773193 -2.915476 0 
C -2.915476 0.773193 -2.608283 1.514823 -2.061553 2.061553 
C -1.514823 2.608283 -0.773193 2.915476 0 2.915476 
z
"/>
    </defs>
    <g clip-path="url(#p5b585b0c06)">
     <use xlink:href="#C3_0_54670f6c50" x="524.223308" y="360.532962" style="fill: #b2232e"/>
    </g>
    <g clip-path="url(#p5b585b0c06)">
     <use xlink:href="#C3_0_54670f6c50" x="409.379314" y="485.703376" style="fill: #b2232e"/>
    </g>
    <g clip-path="url(#p5b585b0c06)">
     <use xlink:href="#C3_0_54670f6c50" x="426.72998" y="468.632709" style="fill: #b2232e"/>
    </g>
   </g>
   <g id="matplotlib.axis_7">
    <g id="xtick_19">
     <g id="line2d_53">
      <g>
       <use xlink:href="#mf40e2ff516" x="370.837419" y="548.496" style="stroke: #000000; stroke-width: 0.8"/>
      </g>
     </g>
     <g id="text_55">
      <text style="font-size: 8px; font-family: 'Arial'; text-anchor: middle" x="370.837419" y="561.320219" transform="rotate(-0 370.837419 561.320219)">−0.4</text>
     </g>
    </g>
    <g id="xtick_20">
     <g id="line2d_54">
      <g>
       <use xlink:href="#mf40e2ff516" x="416.133078" y="548.496" style="stroke: #000000; stroke-width: 0.8"/>
      </g>
     </g>
     <g id="text_56">
      <text style="font-size: 8px; font-family: 'Arial'; text-anchor: middle" x="416.133078" y="561.320219" transform="rotate(-0 416.133078 561.320219)">−0.2</text>
     </g>
    </g>
    <g id="xtick_21">
     <g id="line2d_55">
      <g>
       <use xlink:href="#mf40e2ff516" x="461.428738" y="548.496" style="stroke: #000000; stroke-width: 0.8"/>
      </g>
     </g>
     <g id="text_57">
      <text style="font-size: 8px; font-family: 'Arial'; text-anchor: middle" x="461.428738" y="561.320219" transform="rotate(-0 461.428738 561.320219)">0.0</text>
     </g>
    </g>
    <g id="xtick_22">
     <g id="line2d_56">
      <g>
       <use xlink:href="#mf40e2ff516" x="506.724397" y="548.496" style="stroke: #000000; stroke-width: 0.8"/>
      </g>
     </g>
     <g id="text_58">
      <text style="font-size: 8px; font-family: 'Arial'; text-anchor: middle" x="506.724397" y="561.320219" transform="rotate(-0 506.724397 561.320219)">0.2</text>
     </g>
    </g>
    <g id="xtick_23">
     <g id="line2d_57">
      <g>
       <use xlink:href="#mf40e2ff516" x="552.020057" y="548.496" style="stroke: #000000; stroke-width: 0.8"/>
      </g>
     </g>
     <g id="text_59">
      <text style="font-size: 8px; font-family: 'Arial'; text-anchor: middle" x="552.020057" y="561.320219" transform="rotate(-0 552.020057 561.320219)">0.4</text>
     </g>
    </g>
    <g id="text_60">
     <text style="font-size: 9px; font-family: 'Arial'; text-anchor: middle" x="461.428738" y="573.556059" transform="rotate(-0 461.428738 573.556059)">CaRMA v3 beta</text>
    </g>
   </g>
   <g id="matplotlib.axis_8">
    <g id="ytick_24">
     <g id="line2d_58">
      <g>
       <use xlink:href="#ma4aac08399" x="348.189589" y="527.404235" style="stroke: #000000; stroke-width: 0.8"/>
      </g>
     </g>
     <g id="text_61">
      <text style="font-size: 8px; font-family: 'Arial'; text-anchor: end" x="341.189589" y="530.316345" transform="rotate(-0 341.189589 530.316345)">−0.4</text>
     </g>
    </g>
    <g id="ytick_25">
     <g id="line2d_59">
      <g>
       <use xlink:href="#ma4aac08399" x="348.189589" y="485.220706" style="stroke: #000000; stroke-width: 0.8"/>
      </g>
     </g>
     <g id="text_62">
      <text style="font-size: 8px; font-family: 'Arial'; text-anchor: end" x="341.189589" y="488.132815" transform="rotate(-0 341.189589 488.132815)">−0.2</text>
     </g>
    </g>
    <g id="ytick_26">
     <g id="line2d_60">
      <g>
       <use xlink:href="#ma4aac08399" x="348.189589" y="443.037176" style="stroke: #000000; stroke-width: 0.8"/>
      </g>
     </g>
     <g id="text_63">
      <text style="font-size: 8px; font-family: 'Arial'; text-anchor: end" x="341.189589" y="445.949286" transform="rotate(-0 341.189589 445.949286)">0.0</text>
     </g>
    </g>
    <g id="ytick_27">
     <g id="line2d_61">
      <g>
       <use xlink:href="#ma4aac08399" x="348.189589" y="400.853647" style="stroke: #000000; stroke-width: 0.8"/>
      </g>
     </g>
     <g id="text_64">
      <text style="font-size: 8px; font-family: 'Arial'; text-anchor: end" x="341.189589" y="403.765756" transform="rotate(-0 341.189589 403.765756)">0.2</text>
     </g>
    </g>
    <g id="ytick_28">
     <g id="line2d_62">
      <g>
       <use xlink:href="#ma4aac08399" x="348.189589" y="358.670118" style="stroke: #000000; stroke-width: 0.8"/>
      </g>
     </g>
     <g id="text_65">
      <text style="font-size: 8px; font-family: 'Arial'; text-anchor: end" x="341.189589" y="361.582227" transform="rotate(-0 341.189589 361.582227)">0.4</text>
     </g>
    </g>
    <g id="text_66">
     <text style="font-size: 9px; font-family: 'Arial'; text-anchor: middle" x="319.503046" y="443.037176" transform="rotate(-90 319.503046 443.037176)">Suite2p beta</text>
    </g>
   </g>
   <g id="line2d_63">
    <path d="M 348.189589 548.496 
L 574.667887 337.578353 
" clip-path="url(#p5b585b0c06)" style="fill: none; stroke-dasharray: 2.96,1.28; stroke-dashoffset: 0; stroke: #d6dadf; stroke-width: 0.8"/>
   </g>
   <g id="patch_17">
    <path d="M 348.189589 548.496 
L 348.189589 337.578353 
" style="fill: none; stroke: #000000; stroke-width: 0.8; stroke-linejoin: miter; stroke-linecap: square"/>
   </g>
   <g id="patch_18">
    <path d="M 348.189589 548.496 
L 574.667887 548.496 
" style="fill: none; stroke: #000000; stroke-width: 0.8; stroke-linejoin: miter; stroke-linecap: square"/>
   </g>
   <g id="text_67">
    <text style="font-size: 7px; font-family: 'Arial'; text-anchor: start" x="526.488091" y="358.423786" transform="rotate(-0 526.488091 358.423786)">40</text>
   </g>
   <g id="text_68">
    <text style="font-size: 7px; font-family: 'Arial'; text-anchor: start" x="411.644097" y="483.5942" transform="rotate(-0 411.644097 483.5942)">47</text>
   </g>
   <g id="text_69">
    <text style="font-size: 7px; font-family: 'Arial'; text-anchor: start" x="428.994763" y="466.523533" transform="rotate(-0 428.994763 466.523533)">50</text>
   </g>
   <g id="text_70">
    <text style="font-size: 10px; font-family: 'Arial'; text-anchor: start" x="348.189589" y="331.578353" transform="rotate(-0 348.189589 331.578353)">D  CaRMA vs Suite2p r=0.987</text>
   </g>
  </g>
  <g id="text_71">
   <text style="font-weight: 700; font-size: 12px; font-family: 'Arial'; text-anchor: middle" x="284.363887" y="15.936328" transform="rotate(-0 284.363887 15.936328)">ANM54 D6 · event-level background audit</text>
  </g>
 </g>
 <defs>
  <clipPath id="p38169d8f92">
   <rect x="42.443887" y="46.512" width="226.478298" height="210.917647"/>
  </clipPath>
  <clipPath id="pe0bf3084ab">
   <rect x="348.189589" y="46.512" width="226.478298" height="210.917647"/>
  </clipPath>
  <clipPath id="p71c79f3a5c">
   <rect x="42.443887" y="337.578353" width="226.478298" height="210.917647"/>
  </clipPath>
  <clipPath id="p5b585b0c06">
   <rect x="348.189589" y="337.578353" width="226.478298" height="210.917647"/>
  </clipPath>
 </defs>
</svg>
