<?xml version="1.0" encoding="utf-8" standalone="no"?>
<!DOCTYPE svg PUBLIC "-//W3C//DTD SVG 1.1//EN"
  "http://www.w3.org/Graphics/SVG/1.1/DTD/svg11.dtd">
<svg xmlns:xlink="http://www.w3.org/1999/xlink" width="662.4pt" height="662.4pt" viewBox="0 0 662.4 662.4" xmlns="http://www.w3.org/2000/svg" version="1.1">
 <metadata>
  <rdf:RDF xmlns:dc="http://purl.org/dc/elements/1.1/" xmlns:cc="http://creativecommons.org/ns#" xmlns:rdf="http://www.w3.org/1999/02/22-rdf-syntax-ns#">
   <cc:Work>
    <dc:type rdf:resource="http://purl.org/dc/dcmitype/StillImage"/>
    <dc:date>2026-10-08T10:58:24.904446</dc:date>
    <dc:format>image/svg+xml</dc:format>
    <dc:creator>
     <cc:Agent>
      <dc:title>Matplotlib v3.11.1, https://matplotlib.org/</dc:title>
     </cc:Agent>
    </dc:creator>
   </cc:Work>
  </rdf:RDF>
 </metadata>
 <defs>
  <style type="text/css">*{stroke-linejoin: round; stroke-linecap: butt}</style>
 </defs>
 <g id="figure_1">
  <g id="patch_1">
   <path d="M 0 662.4
L 662.4 662.4
L 662.4 0
L 0 0
z
" style="fill: #ffffff"/>
  </g>
  <g id="axes_1">
   <g id="patch_2">
    <path d="M 62.747316 323.844945
L 305.014793 323.844945
L 305.014793 81.577469
L 62.747316 81.577469
z
" style="fill: #ffffff"/>
   </g>
   <g id="FillBetweenPolyCollection_1">
    <defs>
     <path id="m4050c94c6e" d="M 62.747316 -427.295281
L 62.747316 -403.753499
L 75.498236 -405.875888
L 88.249156 -406.616544
L 101.000076 -440.437297
L 113.750996 -422.461807
L 126.501916 -415.952903
L 139.252835 -423.229293
L 152.003755 -414.892146
L 164.754675 -434.46763
L 177.505595 -388.847948
L 190.256515 -436.163142
L 203.007434 -418.102726
L 215.758354 -422.424101
L 228.509274 -402.107437
L 241.260194 -439.893673
L 254.011114 -421.867343
L 266.762034 -444.047691
L 279.512953 -433.004244
L 292.263873 -398.967179
L 305.014793 -439.562952
L 305.014793 -497.702936
L 305.014793 -497.702936
L 292.263873 -457.101282
L 279.512953 -481.427868
L 266.762034 -483.329191
L 254.011114 -496.818605
L 241.260194 -479.353747
L 228.509274 -472.439449
L 215.758354 -468.829476
L 203.007434 -469.714115
L 190.256515 -453.887314
L 177.505595 -414.720018
L 164.754675 -481.809318
L 152.003755 -463.692473
L 139.252835 -478.365625
L 126.501916 -481.72545
L 113.750996 -470.359515
L 101.000076 -492.111678
L 88.249156 -463.893405
L 75.498236 -486.114506
L 62.747316 -427.295281
z
"/>
    </defs>
    <g clip-path="url(#pecd83d7b2d)">
     <use xlink:href="#m4050c94c6e" x="0" y="662.4" style="fill: #b43e47; fill-opacity: 0.15"/>
    </g>
   </g>
   <g id="matplotlib.axis_1">
    <g id="xtick_1">
     <g id="line2d_1">
      <defs>
       <path id="mba77d0a0f4" d="M 0 0
L 0 3.5
" style="stroke: #000000; stroke-width: 0.8"/>
      </defs>
      <g>
       <use xlink:href="#mba77d0a0f4" x="62.747316" y="323.844945" style="stroke: #000000; stroke-width: 0.8"/>
      </g>
     </g>
     <g id="text_1">
      <text style="font-size: 9px; font-family: 'DejaVu Sans'; text-anchor: middle" x="62.747316" y="337.682836" transform="rotate(-0 62.747316 337.682836)">1</text>
     </g>
    </g>
    <g id="xtick_2">
     <g id="line2d_2">
      <g>
       <use xlink:href="#mba77d0a0f4" x="113.750996" y="323.844945" style="stroke: #000000; stroke-width: 0.8"/>
      </g>
     </g>
     <g id="text_2">
      <text style="font-size: 9px; font-family: 'DejaVu Sans'; text-anchor: middle" x="113.750996" y="337.682836" transform="rotate(-0 113.750996 337.682836)">5</text>
     </g>
    </g>
    <g id="xtick_3">
     <g id="line2d_3">
      <g>
       <use xlink:href="#mba77d0a0f4" x="177.505595" y="323.844945" style="stroke: #000000; stroke-width: 0.8"/>
      </g>
     </g>
     <g id="text_3">
      <text style="font-size: 9px; font-family: 'DejaVu Sans'; text-anchor: middle" x="177.505595" y="337.682836" transform="rotate(-0 177.505595 337.682836)">10</text>
     </g>
    </g>
    <g id="xtick_4">
     <g id="line2d_4">
      <g>
       <use xlink:href="#mba77d0a0f4" x="241.260194" y="323.844945" style="stroke: #000000; stroke-width: 0.8"/>
      </g>
     </g>
     <g id="text_4">
      <text style="font-size: 9px; font-family: 'DejaVu Sans'; text-anchor: middle" x="241.260194" y="337.682836" transform="rotate(-0 241.260194 337.682836)">15</text>
     </g>
    </g>
    <g id="xtick_5">
     <g id="line2d_5">
      <g>
       <use xlink:href="#mba77d0a0f4" x="305.014793" y="323.844945" style="stroke: #000000; stroke-width: 0.8"/>
      </g>
     </g>
     <g id="text_5">
      <text style="font-size: 9px; font-family: 'DejaVu Sans'; text-anchor: middle" x="305.014793" y="337.682836" transform="rotate(-0 305.014793 337.682836)">20</text>
     </g>
    </g>
    <g id="text_6">
     <text style="font-size: 9px; font-family: 'DejaVu Sans'; text-anchor: middle" x="183.881055" y="350.683539" transform="rotate(-0 183.881055 350.683539)">Training day (source)</text>
    </g>
   </g>
   <g id="matplotlib.axis_2">
    <g id="ytick_1">
     <g id="line2d_6">
      <defs>
       <path id="m1f5a9c4448" d="M 0 0
L -3.5 0
" style="stroke: #000000; stroke-width: 0.8"/>
      </defs>
      <g>
       <use xlink:href="#m1f5a9c4448" x="62.747316" y="316.534767" style="stroke: #000000; stroke-width: 0.8"/>
      </g>
     </g>
     <g id="text_7">
      <text style="font-size: 9px; font-family: 'DejaVu Sans'; text-anchor: end" x="55.747316" y="319.953713" transform="rotate(-0 55.747316 319.953713)">−2</text>
     </g>
    </g>
    <g id="ytick_2">
     <g id="line2d_7">
      <g>
       <use xlink:href="#m1f5a9c4448" x="62.747316" y="262.975778" style="stroke: #000000; stroke-width: 0.8"/>
      </g>
     </g>
     <g id="text_8">
      <text style="font-size: 9px; font-family: 'DejaVu Sans'; text-anchor: end" x="55.747316" y="266.394724" transform="rotate(-0 55.747316 266.394724)">0</text>
     </g>
    </g>
    <g id="ytick_3">
     <g id="line2d_8">
      <g>
       <use xlink:href="#m1f5a9c4448" x="62.747316" y="209.416789" style="stroke: #000000; stroke-width: 0.8"/>
      </g>
     </g>
     <g id="text_9">
      <text style="font-size: 9px; font-family: 'DejaVu Sans'; text-anchor: end" x="55.747316" y="212.835735" transform="rotate(-0 55.747316 212.835735)">2</text>
     </g>
    </g>
    <g id="ytick_4">
     <g id="line2d_9">
      <g>
       <use xlink:href="#m1f5a9c4448" x="62.747316" y="155.857801" style="stroke: #000000; stroke-width: 0.8"/>
      </g>
     </g>
     <g id="text_10">
      <text style="font-size: 9px; font-family: 'DejaVu Sans'; text-anchor: end" x="55.747316" y="159.276746" transform="rotate(-0 55.747316 159.276746)">4</text>
     </g>
    </g>
    <g id="ytick_5">
     <g id="line2d_10">
      <g>
       <use xlink:href="#m1f5a9c4448" x="62.747316" y="102.298812" style="stroke: #000000; stroke-width: 0.8"/>
      </g>
     </g>
     <g id="text_11">
      <text style="font-size: 9px; font-family: 'DejaVu Sans'; text-anchor: end" x="55.747316" y="105.717757" transform="rotate(-0 55.747316 105.717757)">6</text>
     </g>
    </g>
    <g id="text_12">
     <text style="font-size: 9px; font-family: 'DejaVu Sans'; text-anchor: middle" x="36.317238" y="202.711207" transform="rotate(-90 36.317238 202.711207)">Active/SRI index</text>
    </g>
   </g>
   <g id="line2d_11">
    <path d="M 62.747316 223.701979
L 75.498236 263.425028
L 88.249156 273.098491
L 101.000076 225.976342
L 113.750996 285.429046
L 126.501916 288.662394
L 139.252835 297.556397
L 152.003755 275.586841
L 164.754675 230.205419
L 177.505595 298.231797
L 190.256515 237.396868
L 203.007434 306.889791
L 215.758354 276.930067
L 228.509274 223.368236
L 241.260194 252.037484
L 254.011114 308.854845
L 266.762034 213.430389
L 279.512953 234.7057
L 292.263873 294.204415
L 305.014793 221.47357
" clip-path="url(#pecd83d7b2d)" style="fill: none; stroke: #aeb5ba; stroke-opacity: 0.37; stroke-width: 0.8; stroke-linecap: square"/>
   </g>
   <g id="line2d_12">
    <path d="M 62.747316 213.553437
L 75.498236 119.862721
L 88.249156 218.939837
L 101.000076 201.980875
L 113.750996 153.495026
L 126.501916 102.916006
L 139.252835 132.907318
L 152.003755 231.66937
L 164.754675 133.616975
L 177.505595 237.010022
L 190.256515 238.436556
L 203.007434 216.263983
L 215.758354 206.927861
L 228.509274 284.176869
L 241.260194 178.855263
L 254.011114 100.91406
L 266.762034 129.696238
L 279.512953 138.238715
L 292.263873 197.980109
L 305.014793 107.552346
" clip-path="url(#pecd83d7b2d)" style="fill: none; stroke: #aeb5ba; stroke-opacity: 0.37; stroke-width: 0.8; stroke-linecap: square"/>
   </g>
   <g id="line2d_13">
    <path d="M 62.747316 260.26171
L 75.498236 304.69359
L 88.249156 293.983682
L 101.000076 264.001355
L 113.750996 255.404342
L 126.501916 270.868
L 139.252835 241.23523
L 152.003755 269.751321
L 164.754675 271.079088
L 177.505595 252.142569
L 190.256515 196.82377
L 203.007434 233.742636
L 215.758354 249.665467
L 228.509274 242.182181
L 241.260194 247.588577
L 254.011114 240.462691
L 266.762034 244.769444
L 279.512953 261.182449
L 292.263873 312.832787
L 305.014793 279.753319
" clip-path="url(#pecd83d7b2d)" style="fill: none; stroke: #aeb5ba; stroke-opacity: 0.37; stroke-width: 0.8; stroke-linecap: square"/>
   </g>
   <g id="line2d_14">
    <path d="M 62.747316 265.666235
L 75.498236 274.846647
L 88.249156 221.152364
L 101.000076 179.36378
L 113.750996 200.403685
L 126.501916 192.032934
L 139.252835 198.65646
L 152.003755 145.745296
L 164.754675 172.791388
L 177.505595 232.475565
L 190.256515 213.931274
L 203.007434 159.916309
L 215.758354 210.584482
L 228.509274 283.315871
L 241.260194 155.094859
L 254.011114 228.46111
L 266.762034 219.862545
L 279.512953 235.028834
L 292.263873 201.327457
L 305.014793 158.469936
" clip-path="url(#pecd83d7b2d)" style="fill: none; stroke: #aeb5ba; stroke-opacity: 0.37; stroke-width: 0.8; stroke-linecap: square"/>
   </g>
   <g id="line2d_15">
    <path d="M 62.747316 271.194692
L 75.498236 119.19603
L 88.249156 128.550756
L 101.000076 109.305209
L 113.750996 185.214597
L 126.501916 213.324782
L 139.252835 187.657299
L 152.003755 192.785624
L 164.754675 213.614759
L 177.505595 283.22013
L 190.256515 200.285393
L 203.007434 175.645177
L 215.758354 139.75818
L 228.509274 92.589627
L 241.260194 180.305268
L 254.011114 136.592425
L 266.762034 185.799179
L 279.512953 156.76402
L 292.263873 165.484082
L 305.014793 201.586109
" clip-path="url(#pecd83d7b2d)" style="fill: none; stroke: #aeb5ba; stroke-opacity: 0.37; stroke-width: 0.8; stroke-linecap: square"/>
   </g>
   <g id="line2d_16">
    <path d="M 62.747316 246.87561
L 75.498236 216.404803
L 88.249156 227.145026
L 101.000076 196.125512
L 113.750996 215.989339
L 126.501916 213.560823
L 139.252835 211.602541
L 152.003755 223.10769
L 164.754675 204.261526
L 177.505595 260.616017
L 190.256515 217.374772
L 203.007434 218.491579
L 215.758354 216.773211
L 228.509274 225.126557
L 241.260194 202.77629
L 254.011114 203.057026
L 266.762034 198.711559
L 279.512953 205.183944
L 292.263873 234.36577
L 305.014793 193.767056
" clip-path="url(#pecd83d7b2d)" style="fill: none; stroke: #b43e47; stroke-opacity: 0.45; stroke-linecap: square"/>
   </g>
   <g id="line2d_17">
    <path d="M 62.747316 231.640207
L 75.498236 230.141813
L 88.249156 213.225114
L 101.000076 213.086626
L 113.750996 208.558558
L 126.501916 213.717568
L 139.252835 216.090351
L 152.003755 212.990586
L 164.754675 229.328411
L 177.505595 227.417438
L 190.256515 232.160789
L 203.007434 217.546521
L 215.758354 220.130449
L 228.509274 214.892019
L 241.260194 210.319958
L 254.011114 201.514958
L 266.762034 202.31751
L 279.512953 212.753758
L 292.263873 211.10559
L 305.014793 214.066413
" clip-path="url(#pecd83d7b2d)" style="fill: none; stroke: #b43e47; stroke-width: 2; stroke-linecap: square"/>
   </g>
   <g id="line2d_18">
    <path d="M 62.747316 262.975778
L 305.014793 262.975778
" clip-path="url(#pecd83d7b2d)" style="fill: none; stroke: #555555; stroke-width: 0.7; stroke-linecap: square"/>
   </g>
   <g id="patch_3">
    <path d="M 62.747316 323.844945
L 62.747316 81.577469
" style="fill: none; stroke: #000000; stroke-width: 0.8; stroke-linejoin: miter; stroke-linecap: square"/>
   </g>
   <g id="patch_4">
    <path d="M 62.747316 323.844945
L 305.014793 323.844945
" style="fill: none; stroke: #000000; stroke-width: 0.8; stroke-linejoin: miter; stroke-linecap: square"/>
   </g>
   <g id="text_13">
    <text style="font-size: 10.8px; font-family: 'DejaVu Sans'; text-anchor: middle" x="183.881055" y="75.577469" transform="rotate(-0 183.881055 75.577469)">A · New SF15 cohort, n=5</text>
   </g>
  </g>
  <g id="axes_2">
   <g id="patch_5">
    <path d="M 386.387316 323.844945
L 628.654793 323.844945
L 628.654793 81.577469
L 386.387316 81.577469
z
" style="fill: #ffffff"/>
   </g>
   <g id="FillBetweenPolyCollection_2">
    <defs>
     <path id="mf8a972e004" d="M 386.387316 -509.568863
L 386.387316 -457.026182
L 399.138236 -490.908835
L 411.889156 -462.240273
L 424.640076 -477.864188
L 437.390996 -487.04181
L 450.141916 -450.850817
L 462.892835 -443.062014
L 475.643755 -459.127572
L 488.394675 -498.708266
L 501.145595 -451.369743
L 513.896515 -442.49279
L 526.647434 -425.754361
L 539.398354 -437.002046
L 552.149274 -400.242753
L 564.900194 -432.646632
L 577.651114 -447.067207
L 590.402034 -418.451302
L 603.152953 -436.786685
L 615.903873 -444.293918
L 628.654793 -414.983695
L 628.654793 -457.611227
L 628.654793 -457.611227
L 615.903873 -470.32975
L 603.152953 -462.854987
L 590.402034 -457.758692
L 577.651114 -488.009032
L 564.900194 -486.941322
L 552.149274 -462.165546
L 539.398354 -496.839629
L 526.647434 -497.691866
L 513.896515 -497.195057
L 501.145595 -495.971875
L 488.394675 -508.758328
L 475.643755 -503.676724
L 462.892835 -502.81374
L 450.141916 -494.467473
L 437.390996 -511.769063
L 424.640076 -496.356477
L 411.889156 -509.546928
L 399.138236 -523.247984
L 386.387316 -509.568863
z
"/>
    </defs>
    <g clip-path="url(#pf0e6962630)">
     <use xlink:href="#mf8a972e004" x="0" y="662.4" style="fill: #4c9fa9; fill-opacity: 0.15"/>
    </g>
   </g>
   <g id="matplotlib.axis_3">
    <g id="xtick_6">
     <g id="line2d_19">
      <g>
       <use xlink:href="#mba77d0a0f4" x="386.387316" y="323.844945" style="stroke: #000000; stroke-width: 0.8"/>
      </g>
     </g>
     <g id="text_14">
      <text style="font-size: 9px; font-family: 'DejaVu Sans'; text-anchor: middle" x="386.387316" y="337.682836" transform="rotate(-0 386.387316 337.682836)">1</text>
     </g>
    </g>
    <g id="xtick_7">
     <g id="line2d_20">
      <g>
       <use xlink:href="#mba77d0a0f4" x="437.390996" y="323.844945" style="stroke: #000000; stroke-width: 0.8"/>
      </g>
     </g>
     <g id="text_15">
      <text style="font-size: 9px; font-family: 'DejaVu Sans'; text-anchor: middle" x="437.390996" y="337.682836" transform="rotate(-0 437.390996 337.682836)">5</text>
     </g>
    </g>
    <g id="xtick_8">
     <g id="line2d_21">
      <g>
       <use xlink:href="#mba77d0a0f4" x="501.145595" y="323.844945" style="stroke: #000000; stroke-width: 0.8"/>
      </g>
     </g>
     <g id="text_16">
      <text style="font-size: 9px; font-family: 'DejaVu Sans'; text-anchor: middle" x="501.145595" y="337.682836" transform="rotate(-0 501.145595 337.682836)">10</text>
     </g>
    </g>
    <g id="xtick_9">
     <g id="line2d_22">
      <g>
       <use xlink:href="#mba77d0a0f4" x="564.900194" y="323.844945" style="stroke: #000000; stroke-width: 0.8"/>
      </g>
     </g>
     <g id="text_17">
      <text style="font-size: 9px; font-family: 'DejaVu Sans'; text-anchor: middle" x="564.900194" y="337.682836" transform="rotate(-0 564.900194 337.682836)">15</text>
     </g>
    </g>
    <g id="xtick_10">
     <g id="line2d_23">
      <g>
       <use xlink:href="#mba77d0a0f4" x="628.654793" y="323.844945" style="stroke: #000000; stroke-width: 0.8"/>
      </g>
     </g>
     <g id="text_18">
      <text style="font-size: 9px; font-family: 'DejaVu Sans'; text-anchor: middle" x="628.654793" y="337.682836" transform="rotate(-0 628.654793 337.682836)">20</text>
     </g>
    </g>
    <g id="text_19">
     <text style="font-size: 9px; font-family: 'DejaVu Sans'; text-anchor: middle" x="507.521055" y="350.683539" transform="rotate(-0 507.521055 350.683539)">Training day (source)</text>
    </g>
   </g>
   <g id="matplotlib.axis_4">
    <g id="ytick_6">
     <g id="line2d_24">
      <g>
       <use xlink:href="#m1f5a9c4448" x="386.387316" y="281.775927" style="stroke: #000000; stroke-width: 0.8"/>
      </g>
     </g>
     <g id="text_20">
      <text style="font-size: 9px; font-family: 'DejaVu Sans'; text-anchor: end" x="379.387316" y="285.194872" transform="rotate(-0 379.387316 285.194872)">−2</text>
     </g>
    </g>
    <g id="ytick_7">
     <g id="line2d_25">
      <g>
       <use xlink:href="#m1f5a9c4448" x="386.387316" y="237.136491" style="stroke: #000000; stroke-width: 0.8"/>
      </g>
     </g>
     <g id="text_21">
      <text style="font-size: 9px; font-family: 'DejaVu Sans'; text-anchor: end" x="379.387316" y="240.555436" transform="rotate(-0 379.387316 240.555436)">−1</text>
     </g>
    </g>
    <g id="ytick_8">
     <g id="line2d_26">
      <g>
       <use xlink:href="#m1f5a9c4448" x="386.387316" y="192.497055" style="stroke: #000000; stroke-width: 0.8"/>
      </g>
     </g>
     <g id="text_22">
      <text style="font-size: 9px; font-family: 'DejaVu Sans'; text-anchor: end" x="379.387316" y="195.916" transform="rotate(-0 379.387316 195.916)">0</text>
     </g>
    </g>
    <g id="ytick_9">
     <g id="line2d_27">
      <g>
       <use xlink:href="#m1f5a9c4448" x="386.387316" y="147.857619" style="stroke: #000000; stroke-width: 0.8"/>
      </g>
     </g>
     <g id="text_23">
      <text style="font-size: 9px; font-family: 'DejaVu Sans'; text-anchor: end" x="379.387316" y="151.276565" transform="rotate(-0 379.387316 151.276565)">1</text>
     </g>
    </g>
    <g id="ytick_10">
     <g id="line2d_28">
      <g>
       <use xlink:href="#m1f5a9c4448" x="386.387316" y="103.218183" style="stroke: #000000; stroke-width: 0.8"/>
      </g>
     </g>
     <g id="text_24">
      <text style="font-size: 9px; font-family: 'DejaVu Sans'; text-anchor: end" x="379.387316" y="106.637129" transform="rotate(-0 379.387316 106.637129)">2</text>
     </g>
    </g>
    <g id="text_25">
     <text style="font-size: 9px; font-family: 'DejaVu Sans'; text-anchor: middle" x="359.957238" y="202.711207" transform="rotate(-90 359.957238 202.711207)">Passive/PRI index</text>
    </g>
   </g>
   <g id="line2d_29">
    <path d="M 386.387316 194.365445
L 399.138236 193.760926
L 411.889156 248.102316
L 424.640076 160.386773
L 437.390996 143.31829
L 450.141916 232.760708
L 462.892835 170.265521
L 475.643755 249.653511
L 488.394675 164.165915
L 501.145595 239.417392
L 513.896515 287.0827
L 526.647434 312.832787
L 539.398354 285.335222
L 552.149274 305.157459
L 564.900194 248.810406
L 577.651114 147.047684
L 590.402034 227.219409
L 603.152953 178.181311
L 615.903873 160.438007
L 628.654793 170.452631
" clip-path="url(#pf0e6962630)" style="fill: none; stroke: #aeb5ba; stroke-opacity: 0.37; stroke-width: 0.8; stroke-linecap: square"/>
   </g>
   <g id="line2d_30">
    <path d="M 386.387316 104.050807
L 399.138236 161.420523
L 411.889156 212.136163
L 424.640076 185.124777
L 437.390996 209.427404
L 450.141916 193.836847
L 462.892835 263.550302
L 475.643755 129.88582
L 488.394675 174.275068
L 501.145595 138.582314
L 513.896515 128.191809
L 526.647434 158.371225
L 539.398354 192.878086
L 552.149274 168.030268
L 564.900194 201.084568
L 577.651114 181.768691
L 590.402034 286.038813
L 603.152953 239.570617
L 615.903873 217.955626
L 628.654793 298.294324
" clip-path="url(#pf0e6962630)" style="fill: none; stroke: #aeb5ba; stroke-opacity: 0.37; stroke-width: 0.8; stroke-linecap: square"/>
   </g>
   <g id="line2d_31">
    <path d="M 386.387316 241.701813
L 399.138236 182.161066
L 411.889156 116.732695
L 424.640076 148.580337
L 437.390996 167.435191
L 450.141916 152.984458
L 462.892835 181.056184
L 475.643755 175.551026
L 488.394675 145.347523
L 501.145595 242.175794
L 513.896515 186.619182
L 526.647434 250.868027
L 539.398354 230.029687
L 552.149274 149.167524
L 564.900194 276.084794
L 577.651114 226.595717
L 590.402034 230.438873
L 603.152953 246.328809
L 615.903873 224.0541
L 628.654793 207.566004
" clip-path="url(#pf0e6962630)" style="fill: none; stroke: #aeb5ba; stroke-opacity: 0.37; stroke-width: 0.8; stroke-linecap: square"/>
   </g>
   <g id="line2d_32">
    <path d="M 386.387316 132.890192
L 399.138236 134.575518
L 411.889156 145.873822
L 424.640076 200.471158
L 437.390996 145.437744
L 450.141916 240.417583
L 462.892835 92.589627
L 475.643755 139.634716
L 488.394675 151.350063
L 501.145595 178.301163
L 513.896515 208.326726
L 526.647434 170.507417
L 539.398354 109.981947
L 552.149274 251.874059
L 564.900194 154.065181
L 577.651114 256.835107
L 590.402034 162.816163
L 603.152953 199.476039
L 615.903873 191.643677
L 628.654793 212.413584
" clip-path="url(#pf0e6962630)" style="fill: none; stroke: #aeb5ba; stroke-opacity: 0.37; stroke-width: 0.8; stroke-linecap: square"/>
   </g>
   <g id="line2d_33">
    <path d="M 386.387316 222.504128
L 399.138236 104.689917
L 411.889156 159.687003
L 424.640076 181.885291
L 437.390996 149.354192
L 450.141916 128.704677
L 462.892835 239.848983
L 475.643755 210.264189
L 488.394675 158.194947
L 501.145595 145.169292
L 513.896515 152.559965
L 526.647434 110.804977
L 539.398354 159.170869
L 552.149274 281.749943
L 564.900194 132.985166
L 577.651114 162.062204
L 590.402034 214.961755
L 603.152953 199.339044
L 615.903873 231.34942
L 628.654793 241.786152
" clip-path="url(#pf0e6962630)" style="fill: none; stroke: #aeb5ba; stroke-opacity: 0.37; stroke-width: 0.8; stroke-linecap: square"/>
   </g>
   <g id="line2d_34">
    <path d="M 386.387316 179.102477
L 399.138236 155.32159
L 411.889156 176.5064
L 424.640076 175.289667
L 437.390996 162.994564
L 450.141916 189.740855
L 462.892835 189.462123
L 475.643755 180.997852
L 488.394675 158.666703
L 501.145595 188.729191
L 513.896515 192.556076
L 526.647434 200.676887
L 539.398354 195.479162
L 552.149274 231.195851
L 564.900194 202.606023
L 577.651114 194.861881
L 590.402034 224.295003
L 603.152953 212.579164
L 615.903873 205.088166
L 628.654793 226.102539
" clip-path="url(#pf0e6962630)" style="fill: none; stroke: #4c9fa9; stroke-opacity: 0.45; stroke-linecap: square"/>
   </g>
   <g id="line2d_35">
    <path d="M 386.387316 167.212034
L 399.138236 170.310156
L 411.889156 169.039219
L 424.640076 171.596877
L 437.390996 176.008362
L 450.141916 180.732514
L 462.892835 186.73361
L 475.643755 176.37556
L 488.394675 176.131249
L 501.145595 179.98399
L 513.896515 193.987385
L 526.647434 196.237375
L 539.398354 209.1173
L 552.149274 209.760345
L 564.900194 209.554585
L 577.651114 207.254302
L 590.402034 210.578682
L 603.152953 213.987444
L 615.903873 214.589956
L 628.654793 215.595353
" clip-path="url(#pf0e6962630)" style="fill: none; stroke: #4c9fa9; stroke-width: 2; stroke-linecap: square"/>
   </g>
   <g id="line2d_36">
    <path d="M 386.387316 192.497055
L 628.654793 192.497055
" clip-path="url(#pf0e6962630)" style="fill: none; stroke: #555555; stroke-width: 0.7; stroke-linecap: square"/>
   </g>
   <g id="patch_6">
    <path d="M 386.387316 323.844945
L 386.387316 81.577469
" style="fill: none; stroke: #000000; stroke-width: 0.8; stroke-linejoin: miter; stroke-linecap: square"/>
   </g>
   <g id="patch_7">
    <path d="M 386.387316 323.844945
L 628.654793 323.844945
" style="fill: none; stroke: #000000; stroke-width: 0.8; stroke-linejoin: miter; stroke-linecap: square"/>
   </g>
   <g id="text_26">
    <text style="font-size: 10.8px; font-family: 'DejaVu Sans'; text-anchor: middle" x="507.521055" y="75.577469" transform="rotate(-0 507.521055 75.577469)">B · New SF15 cohort, n=5</text>
   </g>
  </g>
  <g id="axes_3">
   <g id="patch_8">
    <path d="M 62.747316 628.4
L 305.014793 628.4
L 305.014793 386.132523
L 62.747316 386.132523
z
" style="fill: #ffffff"/>
   </g>
   <g id="matplotlib.axis_5">
    <g id="xtick_11">
     <g id="line2d_37">
      <g>
       <use xlink:href="#mba77d0a0f4" x="118.047501" y="628.4" style="stroke: #000000; stroke-width: 0.8"/>
      </g>
     </g>
     <g id="text_27">
      <text style="font-size: 9px; font-family: 'DejaVu Sans'; text-anchor: middle" x="118.047501" y="642.237891" transform="rotate(-0 118.047501 642.237891)">D1–3</text>
     </g>
    </g>
    <g id="xtick_12">
     <g id="line2d_38">
      <g>
       <use xlink:href="#mba77d0a0f4" x="249.714608" y="628.4" style="stroke: #000000; stroke-width: 0.8"/>
      </g>
     </g>
     <g id="text_28">
      <text style="font-size: 9px; font-family: 'DejaVu Sans'; text-anchor: middle" x="249.714608" y="642.237891" transform="rotate(-0 249.714608 642.237891)">D15–20</text>
     </g>
    </g>
   </g>
   <g id="matplotlib.axis_6">
    <g id="ytick_11">
     <g id="line2d_39">
      <g>
       <use xlink:href="#m1f5a9c4448" x="62.747316" y="622.648788" style="stroke: #000000; stroke-width: 0.8"/>
      </g>
     </g>
     <g id="text_29">
      <text style="font-size: 9px; font-family: 'DejaVu Sans'; text-anchor: end" x="55.747316" y="626.067733" transform="rotate(-0 55.747316 626.067733)">−1</text>
     </g>
    </g>
    <g id="ytick_12">
     <g id="line2d_40">
      <g>
       <use xlink:href="#m1f5a9c4448" x="62.747316" y="581.720826" style="stroke: #000000; stroke-width: 0.8"/>
      </g>
     </g>
     <g id="text_30">
      <text style="font-size: 9px; font-family: 'DejaVu Sans'; text-anchor: end" x="55.747316" y="585.139772" transform="rotate(-0 55.747316 585.139772)">0</text>
     </g>
    </g>
    <g id="ytick_13">
     <g id="line2d_41">
      <g>
       <use xlink:href="#m1f5a9c4448" x="62.747316" y="540.792865" style="stroke: #000000; stroke-width: 0.8"/>
      </g>
     </g>
     <g id="text_31">
      <text style="font-size: 9px; font-family: 'DejaVu Sans'; text-anchor: end" x="55.747316" y="544.21181" transform="rotate(-0 55.747316 544.21181)">1</text>
     </g>
    </g>
    <g id="ytick_14">
     <g id="line2d_42">
      <g>
       <use xlink:href="#m1f5a9c4448" x="62.747316" y="499.864903" style="stroke: #000000; stroke-width: 0.8"/>
      </g>
     </g>
     <g id="text_32">
      <text style="font-size: 9px; font-family: 'DejaVu Sans'; text-anchor: end" x="55.747316" y="503.283849" transform="rotate(-0 55.747316 503.283849)">2</text>
     </g>
    </g>
    <g id="ytick_15">
     <g id="line2d_43">
      <g>
       <use xlink:href="#m1f5a9c4448" x="62.747316" y="458.936942" style="stroke: #000000; stroke-width: 0.8"/>
      </g>
     </g>
     <g id="text_33">
      <text style="font-size: 9px; font-family: 'DejaVu Sans'; text-anchor: end" x="55.747316" y="462.355887" transform="rotate(-0 55.747316 462.355887)">3</text>
     </g>
    </g>
    <g id="ytick_16">
     <g id="line2d_44">
      <g>
       <use xlink:href="#m1f5a9c4448" x="62.747316" y="418.008981" style="stroke: #000000; stroke-width: 0.8"/>
      </g>
     </g>
     <g id="text_34">
      <text style="font-size: 9px; font-family: 'DejaVu Sans'; text-anchor: end" x="55.747316" y="421.427926" transform="rotate(-0 55.747316 421.427926)">4</text>
     </g>
    </g>
    <g id="text_35">
     <text style="font-size: 9px; font-family: 'DejaVu Sans'; text-anchor: middle" x="36.317238" y="507.266262" transform="rotate(-90 36.317238 507.266262)">Active/SRI index</text>
    </g>
   </g>
   <g id="line2d_45">
    <path d="M 118.047501 567.098846
L 249.714608 568.182792
" clip-path="url(#p438460ce12)" style="fill: none; stroke: #aab3ba; stroke-opacity: 0.82; stroke-linecap: square"/>
   </g>
   <g id="line2d_46">
    <path d="M 118.047501 461.200967
L 249.714608 397.144681
" clip-path="url(#p438460ce12)" style="fill: none; stroke: #aab3ba; stroke-opacity: 0.82; stroke-linecap: square"/>
   </g>
   <g id="line2d_47">
    <path d="M 118.047501 617.387842
L 249.714608 583.94572
" clip-path="url(#p438460ce12)" style="fill: none; stroke: #aab3ba; stroke-opacity: 0.82; stroke-linecap: square"/>
   </g>
   <g id="line2d_48">
    <path d="M 118.047501 567.832317
L 249.714608 485.025819
" clip-path="url(#p438460ce12)" style="fill: none; stroke: #aab3ba; stroke-opacity: 0.82; stroke-linecap: square"/>
   </g>
   <g id="line2d_49">
    <path d="M 118.047501 444.17814
L 249.714608 441.286569
" clip-path="url(#p438460ce12)" style="fill: none; stroke: #aab3ba; stroke-opacity: 0.82; stroke-linecap: square"/>
   </g>
   <g id="line2d_50">
    <path d="M 62.747316 581.720826
L 305.014793 581.720826
" clip-path="url(#p438460ce12)" style="fill: none; stroke: #666666; stroke-width: 0.7; stroke-linecap: square"/>
   </g>
   <g id="patch_9">
    <path d="M 62.747316 628.4
L 62.747316 386.132523
" style="fill: none; stroke: #000000; stroke-width: 0.8; stroke-linejoin: miter; stroke-linecap: square"/>
   </g>
   <g id="patch_10">
    <path d="M 62.747316 628.4
L 305.014793 628.4
" style="fill: none; stroke: #000000; stroke-width: 0.8; stroke-linejoin: miter; stroke-linecap: square"/>
   </g>
   <g id="patch_11">
    <path d="M 94.347422 581.720826
L 141.747581 581.720826
L 141.747581 531.539623
L 94.347422 531.539623
z
" clip-path="url(#p438460ce12)" style="fill: #9aa8b2"/>
   </g>
   <g id="patch_12">
    <path d="M 226.014529 581.720826
L 273.414687 581.720826
L 273.414687 495.117116
L 226.014529 495.117116
z
" clip-path="url(#p438460ce12)" style="fill: #b43e47"/>
   </g>
   <g id="text_36">
    <text style="font-size: 10.8px; font-family: 'DejaVu Sans'; text-anchor: middle" x="183.881055" y="380.132523" transform="rotate(-0 183.881055 380.132523)">C · Early vs later training (n=5)</text>
   </g>
   <g id="LineCollection_1">
    <path d="M 118.047501 565.103807
L 118.047501 497.975438
" clip-path="url(#p438460ce12)" style="fill: none; stroke: #252525; stroke-width: 1.3"/>
   </g>
   <g id="line2d_51">
    <defs>
     <path id="m30012f0aca" d="M 4 0
L -4 -0
" style="stroke: #252525"/>
    </defs>
    <g clip-path="url(#p438460ce12)">
     <use xlink:href="#m30012f0aca" x="118.047501" y="565.103807" style="fill: #252525; stroke: #252525"/>
    </g>
   </g>
   <g id="line2d_52">
    <g clip-path="url(#p438460ce12)">
     <use xlink:href="#m30012f0aca" x="118.047501" y="497.975438" style="fill: #252525; stroke: #252525"/>
    </g>
   </g>
   <g id="LineCollection_2">
    <path d="M 249.714608 531.052666
L 249.714608 459.181567
" clip-path="url(#p438460ce12)" style="fill: none; stroke: #252525; stroke-width: 1.3"/>
   </g>
   <g id="line2d_53">
    <g clip-path="url(#p438460ce12)">
     <use xlink:href="#m30012f0aca" x="249.714608" y="531.052666" style="fill: #252525; stroke: #252525"/>
    </g>
   </g>
   <g id="line2d_54">
    <g clip-path="url(#p438460ce12)">
     <use xlink:href="#m30012f0aca" x="249.714608" y="459.181567" style="fill: #252525; stroke: #252525"/>
    </g>
   </g>
  </g>
  <g id="axes_4">
   <g id="patch_13">
    <path d="M 386.387316 628.4
L 628.654793 628.4
L 628.654793 386.132523
L 386.387316 386.132523
z
" style="fill: #ffffff"/>
   </g>
   <g id="matplotlib.axis_7">
    <g id="xtick_13">
     <g id="line2d_55">
      <g>
       <use xlink:href="#mba77d0a0f4" x="441.687501" y="628.4" style="stroke: #000000; stroke-width: 0.8"/>
      </g>
     </g>
     <g id="text_37">
      <text style="font-size: 9px; font-family: 'DejaVu Sans'; text-anchor: middle" x="441.687501" y="642.237891" transform="rotate(-0 441.687501 642.237891)">D1–3</text>
     </g>
    </g>
    <g id="xtick_14">
     <g id="line2d_56">
      <g>
       <use xlink:href="#mba77d0a0f4" x="573.354608" y="628.4" style="stroke: #000000; stroke-width: 0.8"/>
      </g>
     </g>
     <g id="text_38">
      <text style="font-size: 9px; font-family: 'DejaVu Sans'; text-anchor: middle" x="573.354608" y="642.237891" transform="rotate(-0 573.354608 642.237891)">D15–20</text>
     </g>
    </g>
   </g>
   <g id="matplotlib.axis_8">
    <g id="ytick_17">
     <g id="line2d_57">
      <g>
       <use xlink:href="#m1f5a9c4448" x="386.387316" y="616.690435" style="stroke: #000000; stroke-width: 0.8"/>
      </g>
     </g>
     <g id="text_39">
      <text style="font-size: 9px; font-family: 'DejaVu Sans'; text-anchor: end" x="379.387316" y="620.10938" transform="rotate(-0 379.387316 620.10938)">−1.0</text>
     </g>
    </g>
    <g id="ytick_18">
     <g id="line2d_58">
      <g>
       <use xlink:href="#m1f5a9c4448" x="386.387316" y="567.371145" style="stroke: #000000; stroke-width: 0.8"/>
      </g>
     </g>
     <g id="text_40">
      <text style="font-size: 9px; font-family: 'DejaVu Sans'; text-anchor: end" x="379.387316" y="570.79009" transform="rotate(-0 379.387316 570.79009)">−0.5</text>
     </g>
    </g>
    <g id="ytick_19">
     <g id="line2d_59">
      <g>
       <use xlink:href="#m1f5a9c4448" x="386.387316" y="518.051855" style="stroke: #000000; stroke-width: 0.8"/>
      </g>
     </g>
     <g id="text_41">
      <text style="font-size: 9px; font-family: 'DejaVu Sans'; text-anchor: end" x="379.387316" y="521.4708" transform="rotate(-0 379.387316 521.4708)">0.0</text>
     </g>
    </g>
    <g id="ytick_20">
     <g id="line2d_60">
      <g>
       <use xlink:href="#m1f5a9c4448" x="386.387316" y="468.732565" style="stroke: #000000; stroke-width: 0.8"/>
      </g>
     </g>
     <g id="text_42">
      <text style="font-size: 9px; font-family: 'DejaVu Sans'; text-anchor: end" x="379.387316" y="472.15151" transform="rotate(-0 379.387316 472.15151)">0.5</text>
     </g>
    </g>
    <g id="ytick_21">
     <g id="line2d_61">
      <g>
       <use xlink:href="#m1f5a9c4448" x="386.387316" y="419.413275" style="stroke: #000000; stroke-width: 0.8"/>
      </g>
     </g>
     <g id="text_43">
      <text style="font-size: 9px; font-family: 'DejaVu Sans'; text-anchor: end" x="379.387316" y="422.83222" transform="rotate(-0 379.387316 422.83222)">1.0</text>
     </g>
    </g>
    <g id="text_44">
     <text style="font-size: 9px; font-family: 'DejaVu Sans'; text-anchor: middle" x="351.370676" y="507.266262" transform="rotate(-90 351.370676 507.266262)">Passive/PRI index</text>
    </g>
   </g>
   <g id="line2d_62">
    <path d="M 441.687501 561.315438
L 573.354608 509.642985
" clip-path="url(#p27a8d45c2c)" style="fill: none; stroke: #aab3ba; stroke-opacity: 0.82; stroke-linecap: square"/>
   </g>
   <g id="line2d_63">
    <path d="M 441.687501 444.481752
L 573.354608 617.387842
" clip-path="url(#p27a8d45c2c)" style="fill: none; stroke: #aab3ba; stroke-opacity: 0.82; stroke-linecap: square"/>
   </g>
   <g id="line2d_64">
    <path d="M 441.687501 490.876118
L 573.354608 612.362919
" clip-path="url(#p27a8d45c2c)" style="fill: none; stroke: #aab3ba; stroke-opacity: 0.82; stroke-linecap: square"/>
   </g>
   <g id="line2d_65">
    <path d="M 441.687501 397.144681
L 573.354608 526.252476
" clip-path="url(#p27a8d45c2c)" style="fill: none; stroke: #aab3ba; stroke-opacity: 0.82; stroke-linecap: square"/>
   </g>
   <g id="line2d_66">
    <path d="M 441.687501 451.312262
L 573.354608 528.180045
" clip-path="url(#p27a8d45c2c)" style="fill: none; stroke: #aab3ba; stroke-opacity: 0.82; stroke-linecap: square"/>
   </g>
   <g id="line2d_67">
    <path d="M 386.387316 518.051855
L 628.654793 518.051855
" clip-path="url(#p27a8d45c2c)" style="fill: none; stroke: #666666; stroke-width: 0.7; stroke-linecap: square"/>
   </g>
   <g id="patch_14">
    <path d="M 386.387316 628.4
L 386.387316 386.132523
" style="fill: none; stroke: #000000; stroke-width: 0.8; stroke-linejoin: miter; stroke-linecap: square"/>
   </g>
   <g id="patch_15">
    <path d="M 386.387316 628.4
L 628.654793 628.4
" style="fill: none; stroke: #000000; stroke-width: 0.8; stroke-linejoin: miter; stroke-linecap: square"/>
   </g>
   <g id="patch_16">
    <path d="M 417.987422 518.051855
L 465.387581 518.051855
L 465.387581 469.02605
L 417.987422 469.02605
z
" clip-path="url(#p27a8d45c2c)" style="fill: #9aa8b2"/>
   </g>
   <g id="patch_17">
    <path d="M 549.654529 518.051855
L 597.054687 518.051855
L 597.054687 558.765253
L 549.654529 558.765253
z
" clip-path="url(#p27a8d45c2c)" style="fill: #4c9fa9"/>
   </g>
   <g id="text_45">
    <text style="font-size: 10.8px; font-family: 'DejaVu Sans'; text-anchor: middle" x="507.521055" y="380.132523" transform="rotate(-0 507.521055 380.132523)">D · Early vs later training (n=5)</text>
   </g>
   <g id="LineCollection_3">
    <path d="M 441.687501 496.483188
L 441.687501 441.568912
" clip-path="url(#p27a8d45c2c)" style="fill: none; stroke: #252525; stroke-width: 1.3"/>
   </g>
   <g id="line2d_68">
    <g clip-path="url(#p27a8d45c2c)">
     <use xlink:href="#m30012f0aca" x="441.687501" y="496.483188" style="fill: #252525; stroke: #252525"/>
    </g>
   </g>
   <g id="line2d_69">
    <g clip-path="url(#p27a8d45c2c)">
     <use xlink:href="#m30012f0aca" x="441.687501" y="441.568912" style="fill: #252525; stroke: #252525"/>
    </g>
   </g>
   <g id="LineCollection_4">
    <path d="M 573.354608 581.911366
L 573.354608 535.619141
" clip-path="url(#p27a8d45c2c)" style="fill: none; stroke: #252525; stroke-width: 1.3"/>
   </g>
   <g id="line2d_70">
    <g clip-path="url(#p27a8d45c2c)">
     <use xlink:href="#m30012f0aca" x="573.354608" y="581.911366" style="fill: #252525; stroke: #252525"/>
    </g>
   </g>
   <g id="line2d_71">
    <g clip-path="url(#p27a8d45c2c)">
     <use xlink:href="#m30012f0aca" x="573.354608" y="535.619141" style="fill: #252525; stroke: #252525"/>
    </g>
   </g>
  </g>
  <g id="text_46">
   <text style="font-size: 11.5px; font-family: 'DejaVu Sans'; text-anchor: middle" x="331.2" y="18.674203" transform="rotate(-0 331.2 18.674203)">SF15: learning-phase SRI and PRI precede stimulation comparison</text>
  </g>
 </g>
 <defs>
  <clipPath id="pecd83d7b2d">
   <rect x="62.747316" y="81.577469" width="242.267477" height="242.267477"/>
  </clipPath>
  <clipPath id="pf0e6962630">
   <rect x="386.387316" y="81.577469" width="242.267477" height="242.267477"/>
  </clipPath>
  <clipPath id="p438460ce12">
   <rect x="62.747316" y="386.132523" width="242.267477" height="242.267477"/>
  </clipPath>
  <clipPath id="p27a8d45c2c">
   <rect x="386.387316" y="386.132523" width="242.267477" height="242.267477"/>
  </clipPath>
 </defs>
</svg>
